<svg width="40" height="40" viewBox="0 0 40 40" fill="none" xmlns="http://www.w3.org/2000/svg">
<path fill-rule="evenodd" clip-rule="evenodd" d="M37.2 20C37.2 29.4993 29.4993 37.2 20 37.2C10.5007 37.2 2.8 29.4993 2.8 20C2.8 10.5007 10.5007 2.8 20 2.8C29.4993 2.8 37.2 10.5007 37.2 20ZM40 20C40 31.0457 31.0457 40 20 40C8.9543 40 0 31.0457 0 20C0 8.9543 8.9543 0 20 0C31.0457 0 40 8.9543 40 20ZM21.4 12.0833C21.4 11.3101 20.7732 10.6833 20 10.6833C19.2268 10.6833 18.6 11.3101 18.6 12.0833V20C18.6 20.4996 18.8662 20.9613 19.2985 21.2116L27.2152 25.7949C27.8844 26.1823 28.7409 25.9539 29.1283 25.2848C29.5157 24.6156 29.2873 23.7591 28.6181 23.3717L21.4 19.1928V12.0833Z" fill="#FFFFFF"/>
</svg>
