<svg width="56" height="56" viewBox="0 0 56 56" fill="none" xmlns="http://www.w3.org/2000/svg">
<path d="M28 5C33.5228 5 38 9.47715 38 15L38.0018 21.028C39.418 21.1065 40.3765 21.3583 41.3685 21.8888C42.5431 22.517 43.483 23.4569 44.1112 24.6315C44.7716 25.8664 45 27.0492 45 29.1278V40.8722C45 42.9508 44.7716 44.1337 44.1112 45.3685C43.483 46.5431 42.5431 47.483 41.3685 48.1112C40.1336 48.7716 38.9508 49 36.8722 49H19.1278C17.0492 49 15.8664 48.7716 14.6315 48.1112C13.4569 47.483 12.517 46.5431 11.8888 45.3685C11.2284 44.1337 11 42.9508 11 40.8722V29.1278C11 27.0492 11.2284 25.8664 11.8888 24.6315C12.517 23.4569 13.4569 22.517 14.6315 21.8888C15.6238 21.3582 16.5825 21.1064 17.9993 21.028L18 15C18 9.47715 22.4772 5 28 5ZM36.8722 24H19.1278C17.3447 24 16.6982 24.1857 16.0463 24.5343C15.3945 24.8829 14.8829 25.3945 14.5343 26.0463C14.1857 26.6982 14 27.3447 14 29.1278V40.8722C14 42.6553 14.1857 43.3018 14.5343 43.9537C14.8829 44.6055 15.3945 45.1171 16.0463 45.4657C16.6982 45.8144 17.3447 46 19.1278 46H36.8722C38.6553 46 39.3018 45.8144 39.9537 45.4657C40.6055 45.1171 41.1171 44.6055 41.4657 43.9537C41.8144 43.3018 42 42.6553 42 40.8722V29.1278C42 27.3447 41.8144 26.6982 41.4657 26.0463C41.1171 25.3945 40.6055 24.8829 39.9537 24.5343C39.3018 24.1857 38.6553 24 36.8722 24ZM28 30C29.6569 30 31 31.3431 31 33C31 34.3059 30.1656 35.4169 29.0009 35.829L29 39C29 39.5523 28.5523 40 28 40C27.4477 40 27 39.5523 27 39L27.0001 35.8293C25.8349 35.4175 25 34.3063 25 33C25 31.3431 26.3431 30 28 30ZM28 8C24.134 8 21 11.134 21 15V21H35V15C35 11.134 31.866 8 28 8Z" fill="#abb6c6"/>
</svg>
