<svg width="155" height="32" viewBox="0 0 155 32" fill="none" xmlns="http://www.w3.org/2000/svg">
<path d="M46.7923 22.2535L46.1174 23.7183H43.3616V3.26758H47.0735V10.0845C47.0735 10.0845 48.5357 8.67603 50.9541 8.67603C54.666 8.67603 57.928 11.9436 57.928 16.2817C57.928 20.676 54.666 23.9436 50.9541 23.9436C48.4233 23.8873 46.7923 22.2535 46.7923 22.2535ZM50.5604 20.2817C52.6413 20.2817 54.2723 18.6479 54.2723 16.2253C54.2723 13.8028 52.6413 12.169 50.5604 12.169C48.4233 12.169 46.8485 13.8028 46.8485 16.2253C46.8485 18.6479 48.4233 20.2817 50.5604 20.2817Z" fill="#4680C2"/>
<path d="M60.3464 17.5215V8.78906H64.0583V17.0708C64.0583 19.0426 65.3519 20.3384 67.1516 20.3384C68.9513 20.3384 70.2448 19.0426 70.2448 17.0708V8.78906H73.9567V23.7186H71.2009L70.526 22.2538C70.526 22.2538 68.7263 23.8877 66.308 23.8877C62.821 23.8877 60.3464 21.4651 60.3464 17.5215Z" fill="#4680C2"/>
<path d="M80.087 18.986C80.2557 19.9438 81.0431 20.7888 82.3366 20.7888C83.6301 20.7888 84.4738 20.0001 84.4738 19.155C84.4738 17.0142 76.825 18.3663 76.825 13.1269C76.825 10.7043 78.9622 8.56348 82.1679 8.56348C85.7111 8.56348 87.6795 10.479 88.0169 13.1269H84.4738C84.305 12.4508 83.5177 11.6621 82.3366 11.6621C81.2118 11.6621 80.5369 12.3381 80.5369 13.1269C80.5369 15.2114 88.1857 13.9156 88.1857 19.2677C88.1857 21.6902 86.0485 23.8311 82.674 23.8311C78.7934 23.8311 76.825 21.8593 76.4875 18.9297H80.087V18.986Z" fill="#4680C2"/>
<path d="M90.604 4.73294C90.604 3.60618 91.5601 2.64844 92.7412 2.64844C93.866 2.64844 94.8221 3.60618 94.8221 4.73294C94.8221 5.85971 93.866 6.81745 92.7412 6.81745C91.6163 6.81745 90.604 5.85971 90.604 4.73294ZM94.5409 23.7189H90.829V8.78928H94.5409V23.7189Z" fill="#4680C2"/>
<path d="M111.469 14.93V23.7187H107.757V15.437C107.757 13.4652 106.464 12.1694 104.664 12.1694C102.864 12.1694 101.571 13.4652 101.571 15.437V23.7187H97.8589V8.78913H100.615L101.29 10.2539C101.29 10.2539 103.089 8.62012 105.508 8.62012C109.051 8.62012 111.469 11.0427 111.469 14.93Z" fill="#4680C2"/>
<path d="M127.892 19.1544C127.104 21.4079 124.63 23.8867 121.255 23.8867C117.206 23.8867 113.775 20.4501 113.775 16.2248C113.775 11.9994 117.206 8.61914 121.255 8.61914C125.136 8.61914 128.342 11.7177 128.342 16.2248C128.342 16.9008 128.173 17.6896 128.173 17.6896H117.768C118.106 19.1544 119.231 20.2811 121.199 20.2811C123.167 20.2811 123.955 19.1544 123.955 19.1544H127.892ZM117.656 15.098H124.798C124.461 13.4642 123.167 12.1684 121.255 12.1684C119.343 12.1684 117.993 13.4642 117.656 15.098Z" fill="#4680C2"/>
<path d="M133.46 18.986C133.628 19.9438 134.416 20.7888 135.709 20.7888C137.003 20.7888 137.846 20.0001 137.846 19.155C137.846 17.0142 130.198 18.3663 130.198 13.1269C130.198 10.7043 132.335 8.56348 135.54 8.56348C139.084 8.56348 141.052 10.479 141.389 13.1269H137.846C137.678 12.4508 136.89 11.6621 135.709 11.6621C134.584 11.6621 133.909 12.3381 133.909 13.1269C133.909 15.2114 141.558 13.9156 141.558 19.2677C141.558 21.6902 139.421 23.8311 136.047 23.8311C132.166 23.8311 130.198 21.8593 129.86 18.9297H133.46V18.986Z" fill="#4680C2"/>
<path d="M146.901 18.986C147.07 19.9438 147.857 20.7888 149.151 20.7888C150.444 20.7888 151.288 20.0001 151.288 19.155C151.288 17.0142 143.639 18.3663 143.639 13.1269C143.639 10.7043 145.776 8.56348 148.982 8.56348C152.525 8.56348 154.493 10.479 154.831 13.1269H151.288C151.119 12.4508 150.332 11.6621 149.151 11.6621C148.026 11.6621 147.351 12.3381 147.351 13.1269C147.351 15.2114 155 13.9156 155 19.2677C155 21.6902 152.862 23.8311 149.488 23.8311C145.607 23.8311 143.639 21.8593 143.302 18.9297H146.901V18.986Z" fill="#4680C2"/>
<path fill-rule="evenodd" clip-rule="evenodd" d="M20.8091 0C11.8668 0 19.9655 0 11.0232 0C2.08091 0 0 2.14085 0 11.0986C0 16.1127 0 11.9437 0 20.9014C0 29.8592 2.13715 32 11.0795 32C20.0218 32 11.9231 32 20.8654 32C29.8077 32 31.8886 29.8028 31.8886 20.8451C31.8886 11.8873 31.8886 20 31.8886 11.0423C31.8886 2.08451 29.7514 0 20.8091 0ZM25.7583 22.8169H23.4525C22.5526 22.8169 22.3276 22.0845 20.7529 20.507C19.3469 19.1549 18.7845 18.9859 18.447 18.9859C17.9971 18.9859 17.8284 19.0986 17.8284 19.7746V21.8592C17.8284 22.4225 17.6596 22.7606 16.1411 22.7606C13.6665 22.7606 10.967 21.2394 9.05478 18.4789C6.1865 14.4225 5.39913 11.3803 5.39913 10.7606C5.39913 10.4225 5.51161 10.0845 6.1865 10.0845H8.49238C9.11102 10.0845 9.33599 10.3662 9.56095 10.9859C10.6858 14.3099 12.598 17.1831 13.3853 17.1831C13.6665 17.1831 13.8353 17.0704 13.8353 16.2817V12.9577C13.7228 11.3803 12.9354 11.2676 12.9354 10.7042C12.9354 10.4225 13.1604 10.1408 13.5541 10.1408H17.2097C17.7159 10.1408 17.8846 10.4225 17.8846 10.9859V15.6056C17.8846 16.1127 18.1096 16.2817 18.222 16.2817C18.5033 16.2817 18.7845 16.1127 19.2906 15.5493C20.9779 13.6901 22.1589 10.7606 22.1589 10.7606C22.2152 10.4789 22.4964 10.1408 23.0588 10.1408H25.3646C26.0958 10.1408 26.2083 10.4789 26.0958 10.9859C25.8146 12.338 22.9463 16.338 22.9463 16.338C22.7213 16.7324 22.6088 16.9577 22.9463 17.3521C23.1712 17.6901 24.0149 18.3662 24.521 19.0423C25.5334 20.169 26.2645 21.1268 26.4895 21.7465C26.7144 22.4789 26.4332 22.8169 25.7583 22.8169Z" fill="#4680C2"/>
</svg>
