<svg width="233" height="104" viewBox="0 0 233 104" fill="none" xmlns="http://www.w3.org/2000/svg">
<rect width="230" height="104" fill="black" fill-opacity="0"/>
<rect x="3" y="27" width="1" height="77" fill="#EAF1F8"/>
<rect x="3" y="27" width="1" height="77" fill="url(#paint0_linear)"/>
<rect x="59" width="1" height="104" fill="#EAF1F8"/>
<rect x="59" width="1" height="104" fill="url(#paint1_linear)"/>
<rect x="115" width="1" height="104" fill="#EAF1F8"/>
<rect x="115" width="1" height="104" fill="url(#paint2_linear)"/>
<rect x="171" width="1" height="104" fill="#EAF1F8"/>
<rect x="171" width="1" height="104" fill="url(#paint3_linear)"/>
<rect x="227" width="1" height="74" fill="#EAF1F8"/>
<rect x="227" width="1" height="74" fill="url(#paint4_linear)"/>
<path d="M3 70.5004C29.5 71.5004 44 62.4912 59.5 60.5C73.8904 58.6513 94.5 60.5 115.5 56.5C136.182 52.5606 150 47.4044 172 46.5002C202.5 45.2467 209 24 226 24.5" stroke="#D1DDEB" stroke-width="2"/>
<circle cx="3.5" cy="70.5" r="3.5" fill="#D1DDEB"/>
<circle cx="59.5" cy="60.5" r="3.5" fill="#D1DDEB"/>
<circle cx="115.5" cy="56.5" r="3.5" fill="#D1DDEB"/>
<circle cx="171.5" cy="46.5" r="3.5" fill="#D1DDEB"/>
<circle cx="227.5" cy="24.5" r="4" fill="white" stroke="#D1DDEB" stroke-width="3"/>
<defs>
<linearGradient id="paint0_linear" x1="3.5" y1="27" x2="3.5" y2="104" gradientUnits="userSpaceOnUse">
<stop stop-color="white"/>
<stop offset="0.475138" stop-color="white" stop-opacity="0"/>
<stop offset="1" stop-color="white"/>
</linearGradient>
<linearGradient id="paint1_linear" x1="59.5" y1="0" x2="59.5" y2="104" gradientUnits="userSpaceOnUse">
<stop stop-color="white"/>
<stop offset="0.475138" stop-color="white" stop-opacity="0"/>
<stop offset="1" stop-color="white"/>
</linearGradient>
<linearGradient id="paint2_linear" x1="115.5" y1="0" x2="115.5" y2="104" gradientUnits="userSpaceOnUse">
<stop stop-color="white"/>
<stop offset="0.475138" stop-color="white" stop-opacity="0"/>
<stop offset="1" stop-color="white"/>
</linearGradient>
<linearGradient id="paint3_linear" x1="171.5" y1="0" x2="171.5" y2="104" gradientUnits="userSpaceOnUse">
<stop stop-color="white"/>
<stop offset="0.475138" stop-color="white" stop-opacity="0"/>
<stop offset="1" stop-color="white"/>
</linearGradient>
<linearGradient id="paint4_linear" x1="227.5" y1="0" x2="227.5" y2="74" gradientUnits="userSpaceOnUse">
<stop stop-color="white"/>
<stop offset="0.475138" stop-color="white" stop-opacity="0"/>
<stop offset="1" stop-color="white"/>
</linearGradient>
</defs>
</svg>
