<svg width="1326" height="263" viewBox="0 0 1326 263" fill="none" xmlns="http://www.w3.org/2000/svg"><path fill="#000" fill-opacity="0" d="M4 0h1321v263H4z"/><path fill="#000" fill-opacity="0" d="M8 0h1317v263H8z"/><g opacity=".4"><path d="M8 170v93" stroke="#4680C2" stroke-opacity=".2"/><path d="M8 170v93" stroke="url(#a)"/></g><g opacity=".4"><path d="M49 120v143" stroke="#4680C2" stroke-opacity=".2"/><path d="M49 120v143" stroke="url(#b)"/></g><g opacity=".4"><path d="M90 86v177" stroke="#4680C2" stroke-opacity=".2"/><path d="M90 86v177" stroke="url(#c)"/></g><g opacity=".4"><path d="M131 39v224" stroke="#4680C2" stroke-opacity=".2"/><path d="M131 39v224" stroke="url(#d)"/></g><g opacity=".4"><path d="M172.29 11v252" stroke="#4680C2" stroke-opacity=".2"/><path d="M172.29 11v252" stroke="url(#e)"/></g><g opacity=".4"><path d="M213.474 11v252" stroke="#4680C2" stroke-opacity=".2"/><path d="M213.474 11v252" stroke="url(#f)"/></g><g opacity=".4"><path d="M254.658 11v252" stroke="#4680C2" stroke-opacity=".2"/><path d="M254.658 11v252" stroke="url(#g)"/></g><g opacity=".4"><path d="M295.842 11v252" stroke="#4680C2" stroke-opacity=".2"/><path d="M295.842 11v252" stroke="url(#h)"/></g><g opacity=".4"><path d="M337.026 11v252" stroke="#4680C2" stroke-opacity=".2"/><path d="M337.026 11v252" stroke="url(#i)"/></g><g opacity=".4"><path d="M378.21 11v252" stroke="#4680C2" stroke-opacity=".2"/><path d="M378.21 11v252" stroke="url(#j)"/></g><g opacity=".4"><path d="M419.395 11v252" stroke="#4680C2" stroke-opacity=".2"/><path d="M419.395 11v252" stroke="url(#k)"/></g><g opacity=".4"><path d="M460.579 11v252" stroke="#4680C2" stroke-opacity=".2"/><path d="M460.579 11v252" stroke="url(#l)"/></g><g opacity=".4"><path d="M501.763 11v252" stroke="#4680C2" stroke-opacity=".2"/><path d="M501.763 11v252" stroke="url(#m)"/></g><g opacity=".4"><path d="M542.947 11v252" stroke="#4680C2" stroke-opacity=".2"/><path d="M542.947 11v252" stroke="url(#n)"/></g><g opacity=".4"><path d="M584.132 11v252" stroke="#4680C2" stroke-opacity=".2"/><path d="M584.132 11v252" stroke="url(#o)"/></g><g opacity=".4"><path d="M625.316 11v252" stroke="#4680C2" stroke-opacity=".2"/><path d="M625.316 11v252" stroke="url(#p)"/></g><g opacity=".4"><path d="M666.5 11v252" stroke="#4680C2" stroke-opacity=".2"/><path d="M666.5 11v252" stroke="url(#q)"/></g><g opacity=".4"><path d="M707.684 11v252" stroke="#4680C2" stroke-opacity=".2"/><path d="M707.684 11v252" stroke="url(#r)"/></g><g opacity=".4"><path d="M748.868 11v252" stroke="#4680C2" stroke-opacity=".2"/><path d="M748.868 11v252" stroke="url(#s)"/></g><g opacity=".4"><path d="M790.053 11v252" stroke="#4680C2" stroke-opacity=".2"/><path d="M790.053 11v252" stroke="url(#t)"/></g><g opacity=".4"><path d="M831.237 11v252" stroke="#4680C2" stroke-opacity=".2"/><path d="M831.237 11v252" stroke="url(#u)"/></g><g opacity=".4"><path d="M872.421 11v252" stroke="#4680C2" stroke-opacity=".2"/><path d="M872.421 11v252" stroke="url(#v)"/></g><g opacity=".4"><path d="M913.605 11v252" stroke="#4680C2" stroke-opacity=".2"/><path d="M913.605 11v252" stroke="url(#w)"/></g><g opacity=".4"><path d="M954.79 11v252" stroke="#4680C2" stroke-opacity=".2"/><path d="M954.79 11v252" stroke="url(#x)"/></g><g opacity=".4"><path d="M995.974 11v252" stroke="#4680C2" stroke-opacity=".2"/><path d="M995.974 11v252" stroke="url(#y)"/></g><g opacity=".4"><path d="M1037.16 11v252" stroke="#4680C2" stroke-opacity=".2"/><path d="M1037.16 11v252" stroke="url(#z)"/></g><g opacity=".4"><path d="M1078.34 11v252" stroke="#4680C2" stroke-opacity=".2"/><path d="M1078.34 11v252" stroke="url(#A)"/></g><g opacity=".4"><path d="M1119.53 11v252" stroke="#4680C2" stroke-opacity=".2"/><path d="M1119.53 11v252" stroke="url(#B)"/></g><g opacity=".4"><path d="M1160.71 11v252" stroke="#4680C2" stroke-opacity=".2"/><path d="M1160.71 11v252" stroke="url(#C)"/></g><g opacity=".4"><path d="M1201.89 11v252" stroke="#4680C2" stroke-opacity=".2"/><path d="M1201.89 11v252" stroke="url(#D)"/></g><g opacity=".4"><path d="M1243 0v194" stroke="#4680C2" stroke-opacity=".2"/><path d="M1243 0v194" stroke="url(#E)"/></g><g opacity=".4"><path d="M1284 8v138" stroke="#4680C2" stroke-opacity=".2"/><path d="M1284 8v138" stroke="url(#F)"/></g><g opacity=".4"><path d="M1325 3v74" stroke="#4680C2" stroke-opacity=".2"/><path d="M1325 3v74" stroke="url(#G)"/></g><path fill="#000" fill-opacity="0" d="M4 14h1283v214H4z"/><path d="M8 223.5c39.5 0 58-22.299 92-17 39.5 6.156 69-31.5 101-25 14.551 2.956 66.167-25 115.5-21 55.5 4.5 101.913-16.682 115-17.5 24-1.5 33 8 47 7s74.279-25.184 105.5-21c48.5 6.5 71.977.703 82.5-2.5 23-7 68 2.5 83 2.5s36.781-7.687 71.5-14c14.075-2.559 68 1.98 123-7 49-8 101.3 4 113.5 4 25 0 37-10.5 53-11.5s42 9 59 4 31.5-31 59.5-31c44 0 32-50 56-56.5" stroke="#D1DDEB" stroke-width="3"/><circle cx="831" cy="114" r="4" fill="#D1DDEB"/><circle cx="502" cy="144" r="4" fill="#D1DDEB"/><circle cx="1284" cy="17" r="5" fill="#fff" stroke="#D1DDEB" stroke-width="4"/><circle cx="1243" cy="71" r="4" fill="#D1DDEB"/><circle cx="1202" cy="82" r="4" fill="#D1DDEB"/><circle cx="1161" cy="106" r="4" fill="#D1DDEB"/><circle cx="8" cy="224" r="4" fill="#D1DDEB"/><circle cx="49" cy="215" r="4" fill="#D1DDEB"/><circle cx="90" cy="205" r="4" fill="#D1DDEB"/><circle cx="131" cy="203" r="4" fill="#D1DDEB"/><circle cx="172" cy="185" r="4" fill="#D1DDEB"/><circle cx="213" cy="180" r="4" fill="#D1DDEB"/><circle cx="255" cy="168" r="4" fill="#D1DDEB"/><circle cx="296" cy="160" r="4" fill="#D1DDEB"/><circle cx="337" cy="161" r="4" fill="#D1DDEB"/><circle cx="378" cy="156" r="4" fill="#D1DDEB"/><circle cx="419" cy="146" r="4" fill="#D1DDEB"/><circle cx="461" cy="147" r="4" fill="#D1DDEB"/><circle cx="543" cy="133" r="4" fill="#D1DDEB"/><circle cx="584" cy="129" r="4" fill="#D1DDEB"/><circle cx="625" cy="132" r="4" fill="#D1DDEB"/><circle cx="667" cy="126" r="4" fill="#D1DDEB"/><circle cx="708" cy="125" r="4" fill="#D1DDEB"/><circle cx="749" cy="129" r="4" fill="#D1DDEB"/><circle cx="790" cy="122" r="4" fill="#D1DDEB"/><circle cx="872" cy="114" r="4" fill="#D1DDEB"/><circle cx="914" cy="112" r="4" fill="#D1DDEB"/><circle cx="955" cy="106" r="4" fill="#D1DDEB"/><circle cx="996" cy="106" r="4" fill="#D1DDEB"/><circle cx="1037" cy="110" r="4" fill="#D1DDEB"/><circle cx="1078" cy="110" r="4" fill="#D1DDEB"/><circle cx="1120" cy="101" r="4" fill="#D1DDEB"/><defs><linearGradient id="a" x1="8.5" y1="170" x2="8.5" y2="263" gradientUnits="userSpaceOnUse"><stop stop-color="#fff"/><stop offset=".514" stop-color="#fff" stop-opacity="0"/><stop offset="1" stop-color="#fff"/></linearGradient><linearGradient id="b" x1="49.5" y1="120" x2="49.5" y2="263" gradientUnits="userSpaceOnUse"><stop stop-color="#fff"/><stop offset=".514" stop-color="#fff" stop-opacity="0"/><stop offset="1" stop-color="#fff"/></linearGradient><linearGradient id="c" x1="90.5" y1="86" x2="90.5" y2="263" gradientUnits="userSpaceOnUse"><stop stop-color="#fff"/><stop offset=".514" stop-color="#fff" stop-opacity="0"/><stop offset="1" stop-color="#fff"/></linearGradient><linearGradient id="d" x1="131.5" y1="39" x2="131.5" y2="263" gradientUnits="userSpaceOnUse"><stop stop-color="#fff"/><stop offset=".514" stop-color="#fff" stop-opacity="0"/><stop offset="1" stop-color="#fff"/></linearGradient><linearGradient id="e" x1="172.79" y1="11" x2="172.79" y2="263" gradientUnits="userSpaceOnUse"><stop stop-color="#fff"/><stop offset=".514" stop-color="#fff" stop-opacity="0"/><stop offset="1" stop-color="#fff"/></linearGradient><linearGradient id="f" x1="213.974" y1="11" x2="213.974" y2="263" gradientUnits="userSpaceOnUse"><stop stop-color="#fff"/><stop offset=".514" stop-color="#fff" stop-opacity="0"/><stop offset="1" stop-color="#fff"/></linearGradient><linearGradient id="g" x1="255.158" y1="11" x2="255.158" y2="263" gradientUnits="userSpaceOnUse"><stop stop-color="#fff"/><stop offset=".514" stop-color="#fff" stop-opacity="0"/><stop offset="1" stop-color="#fff"/></linearGradient><linearGradient id="h" x1="296.342" y1="11" x2="296.342" y2="263" gradientUnits="userSpaceOnUse"><stop stop-color="#fff"/><stop offset=".514" stop-color="#fff" stop-opacity="0"/><stop offset="1" stop-color="#fff"/></linearGradient><linearGradient id="i" x1="337.526" y1="11" x2="337.526" y2="263" gradientUnits="userSpaceOnUse"><stop stop-color="#fff"/><stop offset=".514" stop-color="#fff" stop-opacity="0"/><stop offset="1" stop-color="#fff"/></linearGradient><linearGradient id="j" x1="378.71" y1="11" x2="378.71" y2="263" gradientUnits="userSpaceOnUse"><stop stop-color="#fff"/><stop offset=".514" stop-color="#fff" stop-opacity="0"/><stop offset="1" stop-color="#fff"/></linearGradient><linearGradient id="k" x1="419.895" y1="11" x2="419.895" y2="263" gradientUnits="userSpaceOnUse"><stop stop-color="#fff"/><stop offset=".514" stop-color="#fff" stop-opacity="0"/><stop offset="1" stop-color="#fff"/></linearGradient><linearGradient id="l" x1="461.079" y1="11" x2="461.079" y2="263" gradientUnits="userSpaceOnUse"><stop stop-color="#fff"/><stop offset=".514" stop-color="#fff" stop-opacity="0"/><stop offset="1" stop-color="#fff"/></linearGradient><linearGradient id="m" x1="502.263" y1="11" x2="502.263" y2="263" gradientUnits="userSpaceOnUse"><stop stop-color="#fff"/><stop offset=".514" stop-color="#fff" stop-opacity="0"/><stop offset="1" stop-color="#fff"/></linearGradient><linearGradient id="n" x1="543.447" y1="11" x2="543.447" y2="263" gradientUnits="userSpaceOnUse"><stop stop-color="#fff"/><stop offset=".514" stop-color="#fff" stop-opacity="0"/><stop offset="1" stop-color="#fff"/></linearGradient><linearGradient id="o" x1="584.632" y1="11" x2="584.632" y2="263" gradientUnits="userSpaceOnUse"><stop stop-color="#fff"/><stop offset=".514" stop-color="#fff" stop-opacity="0"/><stop offset="1" stop-color="#fff"/></linearGradient><linearGradient id="p" x1="625.816" y1="11" x2="625.816" y2="263" gradientUnits="userSpaceOnUse"><stop stop-color="#fff"/><stop offset=".514" stop-color="#fff" stop-opacity="0"/><stop offset="1" stop-color="#fff"/></linearGradient><linearGradient id="q" x1="667" y1="11" x2="667" y2="263" gradientUnits="userSpaceOnUse"><stop stop-color="#fff"/><stop offset=".514" stop-color="#fff" stop-opacity="0"/><stop offset="1" stop-color="#fff"/></linearGradient><linearGradient id="r" x1="708.184" y1="11" x2="708.184" y2="263" gradientUnits="userSpaceOnUse"><stop stop-color="#fff"/><stop offset=".514" stop-color="#fff" stop-opacity="0"/><stop offset="1" stop-color="#fff"/></linearGradient><linearGradient id="s" x1="749.368" y1="11" x2="749.368" y2="263" gradientUnits="userSpaceOnUse"><stop stop-color="#fff"/><stop offset=".514" stop-color="#fff" stop-opacity="0"/><stop offset="1" stop-color="#fff"/></linearGradient><linearGradient id="t" x1="790.553" y1="11" x2="790.553" y2="263" gradientUnits="userSpaceOnUse"><stop stop-color="#fff"/><stop offset=".514" stop-color="#fff" stop-opacity="0"/><stop offset="1" stop-color="#fff"/></linearGradient><linearGradient id="u" x1="831.737" y1="11" x2="831.737" y2="263" gradientUnits="userSpaceOnUse"><stop stop-color="#fff"/><stop offset=".514" stop-color="#fff" stop-opacity="0"/><stop offset="1" stop-color="#fff"/></linearGradient><linearGradient id="v" x1="872.921" y1="11" x2="872.921" y2="263" gradientUnits="userSpaceOnUse"><stop stop-color="#fff"/><stop offset=".514" stop-color="#fff" stop-opacity="0"/><stop offset="1" stop-color="#fff"/></linearGradient><linearGradient id="w" x1="914.105" y1="11" x2="914.105" y2="263" gradientUnits="userSpaceOnUse"><stop stop-color="#fff"/><stop offset=".514" stop-color="#fff" stop-opacity="0"/><stop offset="1" stop-color="#fff"/></linearGradient><linearGradient id="x" x1="955.29" y1="11" x2="955.29" y2="263" gradientUnits="userSpaceOnUse"><stop stop-color="#fff"/><stop offset=".514" stop-color="#fff" stop-opacity="0"/><stop offset="1" stop-color="#fff"/></linearGradient><linearGradient id="y" x1="996.474" y1="11" x2="996.474" y2="263" gradientUnits="userSpaceOnUse"><stop stop-color="#fff"/><stop offset=".514" stop-color="#fff" stop-opacity="0"/><stop offset="1" stop-color="#fff"/></linearGradient><linearGradient id="z" x1="1037.66" y1="11" x2="1037.66" y2="263" gradientUnits="userSpaceOnUse"><stop stop-color="#fff"/><stop offset=".514" stop-color="#fff" stop-opacity="0"/><stop offset="1" stop-color="#fff"/></linearGradient><linearGradient id="A" x1="1078.84" y1="11" x2="1078.84" y2="263" gradientUnits="userSpaceOnUse"><stop stop-color="#fff"/><stop offset=".514" stop-color="#fff" stop-opacity="0"/><stop offset="1" stop-color="#fff"/></linearGradient><linearGradient id="B" x1="1120.03" y1="11" x2="1120.03" y2="263" gradientUnits="userSpaceOnUse"><stop stop-color="#fff"/><stop offset=".514" stop-color="#fff" stop-opacity="0"/><stop offset="1" stop-color="#fff"/></linearGradient><linearGradient id="C" x1="1161.21" y1="11" x2="1161.21" y2="263" gradientUnits="userSpaceOnUse"><stop stop-color="#fff"/><stop offset=".514" stop-color="#fff" stop-opacity="0"/><stop offset="1" stop-color="#fff"/></linearGradient><linearGradient id="D" x1="1202.39" y1="11" x2="1202.39" y2="263" gradientUnits="userSpaceOnUse"><stop stop-color="#fff"/><stop offset=".514" stop-color="#fff" stop-opacity="0"/><stop offset="1" stop-color="#fff"/></linearGradient><linearGradient id="E" x1="1243.5" y1="0" x2="1243.5" y2="194" gradientUnits="userSpaceOnUse"><stop stop-color="#fff"/><stop offset=".514" stop-color="#fff" stop-opacity="0"/><stop offset="1" stop-color="#fff"/></linearGradient><linearGradient id="F" x1="1284.5" y1="8" x2="1284.5" y2="146" gradientUnits="userSpaceOnUse"><stop stop-color="#fff"/><stop offset=".514" stop-color="#fff" stop-opacity="0"/><stop offset="1" stop-color="#fff"/></linearGradient><linearGradient id="G" x1="1325.5" y1="3" x2="1325.5" y2="77" gradientUnits="userSpaceOnUse"><stop stop-color="#fff"/><stop offset=".514" stop-color="#fff" stop-opacity="0"/><stop offset="1" stop-color="#fff"/></linearGradient></defs></svg>