<svg width="20" height="20" viewBox="0 0 20 20" fill="none" xmlns="http://www.w3.org/2000/svg">
<path d="M8.59031 11.41C9.00031 11.8 9.00031 12.44 8.59031 12.83C8.20031 13.22 7.56031 13.22 7.17031 12.83C5.22031 10.88 5.22031 7.71 7.17031 5.76L10.7103 2.22C12.6603 0.27 15.8303 0.27 17.7803 2.22C19.7303 4.17 19.7303 7.34 17.7803 9.29L16.2903 10.78C16.3003 9.96 16.1703 9.14 15.8903 8.36L16.3603 7.88C17.5403 6.71 17.5403 4.81 16.3603 3.64C15.1903 2.46 13.2903 2.46 12.1203 3.64L8.59031 7.17C7.41031 8.34 7.41031 10.24 8.59031 11.41ZM11.4103 7.17C11.8003 6.78 12.4403 6.78 12.8303 7.17C14.7803 9.12 14.7803 12.29 12.8303 14.24L9.29031 17.78C7.34031 19.73 4.17031 19.73 2.22031 17.78C0.270313 15.83 0.270313 12.66 2.22031 10.71L3.71031 9.22C3.70031 10.04 3.83031 10.86 4.11031 11.65L3.64031 12.12C2.46031 13.29 2.46031 15.19 3.64031 16.36C4.81031 17.54 6.71031 17.54 7.88031 16.36L11.4103 12.83C12.5903 11.66 12.5903 9.76 11.4103 8.59C11.0003 8.2 11.0003 7.56 11.4103 7.17Z" fill="#B4C7DD"/>
</svg>
