<svg width="22" height="16" viewBox="0 0 22 16" fill="none" xmlns="http://www.w3.org/2000/svg">
<path d="M12.0004 4.75V0.581223C12.0004 0.30508 12.2243 0.0812225 12.5004 0.0812225C12.6191 0.0812225 12.7339 0.123413 12.8243 0.200253L21.5522 7.61904C21.7626 7.79788 21.7882 8.11343 21.6094 8.32383C21.5919 8.34439 21.5728 8.3635 21.5522 8.38098L12.8243 15.7998C12.6139 15.9786 12.2983 15.953 12.1195 15.7426C12.0426 15.6522 12.0004 15.5374 12.0004 15.4188V11.25C6.6543 11.25 2.86121 12.395 0.621141 14.6849C0.524604 14.7836 0.366296 14.7854 0.26758 14.6888C0.205145 14.6277 0.179104 14.5385 0.198885 14.4534C1.70309 7.98447 5.63694 4.75 12.0004 4.75ZM12.0004 4.75V0.581223C12.0004 0.30508 12.2243 0.0812225 12.5004 0.0812225C12.6191 0.0812225 12.7339 0.123413 12.8243 0.200253L21.5522 7.61904C21.7626 7.79788 21.7882 8.11343 21.6094 8.32383C21.5919 8.34439 21.5728 8.3635 21.5522 8.38098L12.8243 15.7998C12.6139 15.9786 12.2983 15.953 12.1195 15.7426C12.0426 15.6522 12.0004 15.5374 12.0004 15.4188V11.25C6.6543 11.25 2.86121 12.395 0.621141 14.6849C0.524604 14.7836 0.366296 14.7854 0.26758 14.6888C0.205145 14.6277 0.179104 14.5385 0.198885 14.4534C1.70309 7.98447 5.63694 4.75 12.0004 4.75Z" fill="#B4C7DD"/>
</svg>
