<svg width="32" height="32" viewBox="0 0 32 32" fill="none" xmlns="http://www.w3.org/2000/svg">
<path fill-rule="evenodd" clip-rule="evenodd" d="M32 11.0933V20.9067C32 29.8667 29.8667 32 20.9067 32H11.0933C2.24129 32 0.0523966 29.9178 0.000937225 21.2276L0 11.0933C0 2.24129 2.08224 0.0523966 10.7724 0.000937225L20.9067 0C29.8667 0 32 2.13333 32 11.0933ZM8.66671 10H6.33337C5.66671 10 5.53337 10.3138 5.53337 10.6599C5.53337 11.2779 6.32442 14.3432 9.21663 18.3973C11.1448 21.1659 13.8614 22.6667 16.3334 22.6667C17.8166 22.6667 18 22.3333 18 21.7592V19.6667C18 19 18.1405 18.867 18.6102 18.867C18.9563 18.867 19.5496 19.04 20.9339 20.3749C22.516 21.9569 22.7768 22.6667 23.6667 22.6667H26C26.6667 22.6667 27 22.3333 26.8077 21.6755C26.5973 21.0199 25.842 20.0687 24.8397 18.9411C24.2958 18.2984 23.4801 17.6063 23.2329 17.2601C22.8868 16.8152 22.9857 16.6174 23.2329 16.2219C23.2329 16.2219 26.0757 12.2173 26.3723 10.8577C26.5206 10.3633 26.3723 10 25.6667 10H23.3334C22.7401 10 22.4666 10.3138 22.3182 10.6599C22.3182 10.6599 21.1316 13.5522 19.4507 15.4309C18.9069 15.9747 18.6596 16.1477 18.363 16.1477C18.2147 16.1477 18 15.9747 18 15.4803V10.8577C18 10.2644 17.8278 10 17.3334 10H13.6667C13.296 10 13.073 10.2754 13.073 10.5363C13.073 11.0988 13.9134 11.2285 14 12.8106V16.2467C14 17 13.864 17.1366 13.5673 17.1366C12.7763 17.1366 10.8522 14.2314 9.711 10.9071C9.48736 10.261 9.26304 10 8.66671 10Z" fill="#4986CC"/>
</svg>
