<svg width="24" height="24" viewBox="0 0 24 24" fill="none" xmlns="http://www.w3.org/2000/svg">
<path d="M10.5898 13.41C10.9998 13.8 10.9998 14.44 10.5898 14.83C10.1998 15.22 9.55982 15.22 9.16982 14.83C7.21982 12.88 7.21982 9.71001 9.16982 7.76001L12.7098 4.22001C14.6598 2.27001 17.8298 2.27001 19.7798 4.22001C21.7298 6.17001 21.7298 9.34001 19.7798 11.29L18.2898 12.78C18.2998 11.96 18.1698 11.14 17.8898 10.36L18.3598 9.88001C19.5398 8.71001 19.5398 6.81001 18.3598 5.64001C17.1898 4.46001 15.2898 4.46001 14.1198 5.64001L10.5898 9.17001C9.40982 10.34 9.40982 12.24 10.5898 13.41ZM13.4098 9.17001C13.7998 8.78001 14.4398 8.78001 14.8298 9.17001C16.7798 11.12 16.7798 14.29 14.8298 16.24L11.2898 19.78C9.33982 21.73 6.16982 21.73 4.21982 19.78C2.26982 17.83 2.26982 14.66 4.21982 12.71L5.70982 11.22C5.69982 12.04 5.82982 12.86 6.10982 13.65L5.63982 14.12C4.45982 15.29 4.45982 17.19 5.63982 18.36C6.80982 19.54 8.70982 19.54 9.87982 18.36L13.4098 14.83C14.5898 13.66 14.5898 11.76 13.4098 10.59C12.9998 10.2 12.9998 9.56001 13.4098 9.17001Z" fill="#B4C7DD"/>
</svg>
