<svg width="70" height="70" viewBox="0 0 70 70" xmlns="http://www.w3.org/2000/svg">
<path d="M60.396 51.3333C60.7665 49.3664 60.757 47.3467 60.368 45.3833L65.7113 32.4882C65.7119 32.4796 65.7119 32.471 65.7113 32.4625C66.5772 30.0919 67.8461 27.8887 69.4622 25.9502C69.8643 25.5254 70.026 24.9271 69.8927 24.3577L67.7017 14.896C67.6756 14.7971 67.6364 14.7021 67.585 14.6137C67.5757 14.5962 67.5722 14.5752 67.5628 14.5588C67.5535 14.5425 67.5127 14.5028 67.4893 14.4725C67.4416 14.4026 67.3864 14.3381 67.3248 14.28C67.2843 14.2514 67.2418 14.2257 67.1977 14.203C67.1408 14.1611 67.0803 14.1244 67.0168 14.0933C66.9289 14.0601 66.8372 14.0378 66.7438 14.0268C66.717 14.0268 66.6937 14.0093 66.6668 14.007C66.4432 13.9921 66.22 14.0419 66.024 14.1505C66.0065 14.1598 65.9855 14.1633 65.968 14.1738H65.9563L57.7185 19.3153C57.2196 19.6243 56.91 20.1637 56.8948 20.7503C56.666 23.2693 56.0024 25.7297 54.9337 28.0222V28.035L52.2632 34.4902C50.9525 33.7934 49.5493 33.2866 48.0958 32.9852C48.646 29.1876 48.8483 25.3477 48.7002 21.5133C50.8719 18.9076 51.9142 15.5431 51.5958 12.166C50.8667 5.36666 44.7218 0.456162 44.4593 0.249663C44.0648 -0.0610297 43.5157 -0.0843957 43.0962 0.191656C42.6767 0.467707 42.4809 0.981229 42.6102 1.4665C43.211 3.72283 42.6907 6.10399 38.2527 11.0005C36.2587 12.9258 35.6267 15.8656 36.6532 18.4403C37.0456 19.4251 37.6079 20.3333 38.3145 21.1237C38.0322 22.9262 37.8105 24.633 37.6577 26.2955C37.3945 29.0452 37.3267 31.8102 37.4547 34.5695C36.4139 35.1338 35.4395 35.8127 34.5497 36.5937L28.8913 12.397C28.8913 12.3725 28.868 12.355 28.861 12.3328C28.842 12.255 28.8146 12.1795 28.7793 12.1077L22.9997 1.43383C22.4213 0.365481 21.1993 -0.183511 20.0164 0.093528C18.8336 0.370567 17.9825 1.40508 17.9387 2.61916L17.5 14.7467C17.5003 14.8342 17.5101 14.9214 17.5292 15.0068C17.5292 15.0255 17.5292 15.0418 17.5292 15.0593L23.3018 39.6958C22.3912 39.736 21.4872 39.8709 20.6045 40.0983L14.2543 24.7625C13.7451 23.5902 12.3946 23.037 11.2093 23.5153L1.50383 27.5333C0.316012 28.0291 -0.248475 29.3911 0.240334 30.5818L8.85267 51.3578C3.80509 51.6228 -0.112965 55.8601 0.0173169 60.9129C0.147599 65.9658 4.27881 69.9954 9.33333 70H60.6667C64.0011 69.9516 67.0565 68.128 68.6819 65.2161C70.3073 62.3042 70.2557 58.7464 68.5466 55.8828C66.8375 53.0192 63.7305 51.285 60.396 51.3333ZM59.2072 21.1353L64.0978 18.0833L62.3665 22.2647C62.1197 22.86 62.4023 23.5427 62.9977 23.7895C63.593 24.0363 64.2757 23.7537 64.5225 23.1583L66.2538 18.977L67.55 24.5922C66.1632 26.284 65.024 28.1644 64.1667 30.177C62.9503 30.7408 61.5536 30.7701 60.3147 30.2577C59.0758 29.7453 58.1077 28.7379 57.645 27.4797C58.4644 25.4498 58.9904 23.3136 59.2072 21.1353ZM56.5238 30.2948C57.2957 31.2385 58.2973 31.9677 59.4323 32.4123C60.3346 32.8004 61.305 33.005 62.2872 33.0143C62.5235 33.0135 62.7595 32.999 62.9942 32.9712L59.2713 41.9545C58.1566 39.4967 56.4321 37.3646 54.2617 35.7607L56.5238 30.2948ZM40.5405 21.9625L46.4018 22.3207C46.438 23.4103 46.4252 24.5373 46.389 25.6818C44.4364 25.8213 42.4741 25.7266 40.544 25.3995C40.397 25.3785 40.2535 25.3622 40.1077 25.3423C40.2243 24.2433 40.3667 23.1303 40.5382 21.9625H40.5405ZM39.984 12.5673C43.0815 9.15016 44.6868 6.52166 45.0602 4.05066C47.2867 6.34146 48.7563 9.26047 49.2707 12.4133C49.5157 15.158 48.667 17.8884 46.9093 20.0107C44.6048 19.8707 42.3255 19.7307 40.0715 19.5907C39.103 18.6852 38.5458 17.4239 38.5289 16.0982C38.5119 14.7724 39.0366 13.4972 39.9817 12.5673H39.984ZM39.8953 27.6675L40.2337 27.7118C41.737 27.9443 43.2545 28.0733 44.7755 28.098C45.2585 28.098 45.7672 28.0595 46.277 28.0198C46.1708 29.5213 45.997 31.0893 45.7765 32.7098C45.4883 32.6947 45.206 32.6667 44.9167 32.6667C43.1553 32.6698 41.4071 32.9708 39.746 33.5568C39.6922 31.5925 39.7413 29.6267 39.893 27.6675H39.8953ZM30.8712 41.3105L27.5333 27.0923C27.3773 26.4755 26.7558 26.0974 26.1363 26.2425C25.5167 26.3876 25.1277 27.0023 25.2618 27.6243L28.2613 40.4215C27.4366 40.1266 26.5847 39.9143 25.718 39.788L20.5975 17.9363C21.3148 18.2629 22.0937 18.4324 22.8818 18.4333C22.9553 18.4333 23.0335 18.4228 23.1082 18.4193L23.933 21.9415C24.0219 22.3538 24.3263 22.686 24.7293 22.8104C25.1323 22.9348 25.571 22.832 25.8768 22.5416C26.1826 22.2512 26.3079 21.8183 26.2045 21.4095L25.3785 17.885C26.1701 17.5346 26.8682 17.0031 27.4167 16.3333L32.6223 38.5922C31.9463 39.4354 31.3595 40.3463 30.8712 41.3105ZM23.7428 15.9938C22.2508 16.2832 20.7273 15.6732 19.8473 14.434L19.9955 10.325C20.4014 10.4008 20.8134 10.4399 21.2263 10.4417C21.6252 10.4433 22.0229 10.3991 22.4117 10.3098C23.1987 10.1031 23.9349 9.73702 24.5747 9.23416L26.5393 12.8602C26.3052 14.3646 25.2107 15.592 23.7428 15.9962V15.9938ZM20.5473 2.36483C20.7063 2.32802 20.8703 2.40144 20.9487 2.5445L23.45 7.17033C22.9988 7.57854 22.46 7.87787 21.875 8.04533C21.2771 8.15507 20.662 8.12593 20.0772 7.96016L20.2673 2.70316C20.2737 2.54014 20.3884 2.40154 20.5473 2.36483ZM12.1042 25.6667L12.9955 27.8203L8.67883 29.6077C8.16709 29.8226 7.87759 30.3682 7.98661 30.9125C8.09562 31.4567 8.57296 31.8488 9.128 31.85C9.28128 31.8497 9.43304 31.8195 9.57483 31.7613L13.8915 29.9728L14.784 32.1288L12.6245 33.0237C12.1098 33.2367 11.8175 33.7838 11.9265 34.33C12.0355 34.8762 12.5155 35.2692 13.0725 35.2683C13.2254 35.2678 13.3767 35.2377 13.5182 35.1797L15.6777 34.2848L16.5702 36.4408L12.25 38.2317C11.7353 38.4447 11.443 38.9918 11.552 39.538C11.661 40.0842 12.141 40.4772 12.698 40.4763C12.8509 40.4759 13.0023 40.4458 13.1437 40.3877L17.4603 38.6003L18.4042 40.8788C14.6025 42.6141 11.8147 46.0072 10.85 50.0733L2.394 29.6847L12.1042 25.6667ZM60.6667 67.6667H9.33333C5.46734 67.6667 2.33333 64.5326 2.33333 60.6667C2.33333 56.8007 5.46734 53.6667 9.33333 53.6667C10.0093 53.6644 10.682 53.7619 11.3295 53.956C11.6793 54.0617 12.0584 53.9973 12.3538 53.7822C12.6492 53.567 12.8267 53.2259 12.8333 52.8605C12.9163 48.7026 15.32 44.941 19.0582 43.1189C22.7965 41.2967 27.2403 41.7206 30.5667 44.2167C30.8606 44.4354 31.2403 44.5034 31.5919 44.4002C31.9434 44.297 32.2261 44.0346 32.3552 43.6917C34.6345 37.617 40.9341 34.0438 47.3176 35.2049C53.701 36.3659 58.339 41.9285 58.3333 48.4167C58.3356 49.7509 58.137 51.0779 57.7442 52.353C57.6215 52.7497 57.719 53.1817 58.0001 53.4873C58.2812 53.7929 58.7036 53.9261 59.1092 53.837C59.6207 53.7244 60.1429 53.6673 60.6667 53.6667C64.5327 53.6667 67.6667 56.8007 67.6667 60.6667C67.6667 64.5326 64.5327 67.6667 60.6667 67.6667Z" fill-opacity="0.8"/>
<path d="M45.1325 18.3167C45.4986 18.318 45.8442 18.1474 46.0658 17.8558C47.5223 15.8844 48.0852 13.3925 47.6175 10.9865C47.5179 10.5751 47.2034 10.2498 46.7956 10.1366C46.3878 10.0234 45.9506 10.1399 45.6532 10.4411C45.3559 10.7423 45.245 11.181 45.3635 11.5873C45.6428 13.297 45.226 15.0473 44.2061 16.4477C43.941 16.8012 43.8983 17.2742 44.096 17.6694C44.2936 18.0646 44.6976 18.3143 45.1395 18.3143L45.1325 18.3167Z" fill-opacity="0.8"/>
<path d="M43.5983 53.6667C42.7308 53.6694 41.8751 53.8688 41.0958 54.25C38.9971 51.3782 35.0783 50.5369 31.9858 52.2943C28.8932 54.0516 27.6103 57.8488 29.0033 61.1217C29.1866 61.5519 29.6091 61.831 30.0767 61.831C30.2339 61.8314 30.3895 61.7996 30.534 61.7377C30.8187 61.6164 31.0435 61.387 31.159 61.0999C31.2745 60.8129 31.2713 60.4917 31.15 60.207C30.896 59.615 30.765 58.9775 30.765 58.3333C30.765 55.756 32.8543 53.6667 35.4317 53.6667C37.2418 53.6577 38.8904 54.7066 39.6492 56.35C39.6744 56.388 39.7017 56.4246 39.7308 56.4597C39.7493 56.4997 39.7699 56.5386 39.7927 56.5763C39.8137 56.602 39.844 56.6137 39.8673 56.6382C39.9221 56.695 39.9827 56.7458 40.0482 56.7898C40.1064 56.8347 40.169 56.8738 40.2348 56.9065C40.3026 56.9349 40.3729 56.9568 40.4448 56.9718C40.5166 56.9907 40.5901 57.002 40.6642 57.0057C40.8157 57.0045 40.9661 56.9793 41.1098 56.931C41.1409 56.9253 41.1717 56.9179 41.202 56.9088C41.2399 56.8844 41.2761 56.8575 41.3105 56.8283C41.3525 56.8097 41.3934 56.7886 41.433 56.7653C42.0458 56.2698 42.8102 55.9996 43.5983 56C44.9625 56.0022 46.201 56.7968 46.7717 58.0358C47.0391 58.6222 47.7312 58.8807 48.3175 58.6134C48.9038 58.346 49.1624 57.6539 48.895 57.0675C47.945 54.9969 45.8765 53.6687 43.5983 53.6667Z" fill-opacity="0.8"/>
<path d="M20.6313 45.5595C20.4551 45.6167 16.3333 47.0423 16.3333 51.3333C16.3333 51.9777 16.8556 52.5 17.4999 52.5C18.1443 52.5 18.6666 51.9777 18.6666 51.3333C18.7618 49.7058 19.8326 48.2979 21.3756 47.7715C21.9877 47.566 22.3173 46.9031 22.1118 46.291C21.9062 45.6789 21.2434 45.3493 20.6313 45.5548V45.5595Z" fill-opacity="0.8"/>
<path d="M37.0498 44.2983C37.1424 44.3218 37.2377 44.3336 37.3333 44.3333C37.868 44.3328 38.3339 43.9688 38.4638 43.4502C39.0008 41.2716 40.9294 39.7219 43.1725 39.6667C43.8168 39.6651 44.3378 39.1414 44.3362 38.4971C44.3346 37.8528 43.811 37.3317 43.1666 37.3333C39.8506 37.3774 36.985 39.6607 36.2016 42.8832C36.0451 43.5082 36.4248 44.1417 37.0498 44.2983Z" fill-opacity="0.8"/>
</svg>
