<svg width="70" height="70" viewBox="0 0 70 70" xmlns="http://www.w3.org/2000/svg">
<g clip-path="url(#clip0)">
<path d="M69.883 32.4107C69.9235 32.3012 69.9468 32.1866 69.952 32.0697C69.952 31.9465 69.932 31.8238 69.8938 31.7069L69.8037 31.452C68.8501 22.2355 64.2749 13.7752 57.0836 7.93276C56.5698 7.51414 56.0325 7.13601 55.4953 6.74819C55.4685 6.72594 55.4542 6.69458 55.4251 6.67347C55.396 6.65237 55.3726 6.65465 55.3481 6.63925C49.4024 2.37718 42.2745 0.0793283 34.9589 0.0656404C34.6577 0.0656404 34.3549 0.0656404 34.1296 0.0890239C30.2274 0.164878 26.3674 0.907446 22.7156 2.28479C19.5497 -0.184734 15.2523 -0.632442 11.645 1.13159C8.03763 2.89561 5.75232 6.56283 5.75802 10.5779C5.82817 11.9137 6.13843 13.2254 6.67511 14.4499C5.48312 16.0793 4.43372 17.808 3.53887 19.6177C3.52119 19.6456 3.51092 19.6758 3.49553 19.7049C-4.78565 36.8279 2.10506 57.4311 19.0216 66.1263C35.9375 74.8221 56.7021 68.435 65.8068 51.7352C68.3003 47.1412 69.7176 42.0407 69.9508 36.8194C69.9873 36.2559 69.9999 35.6816 69.9999 35.1067C69.9999 34.2015 69.9531 33.3044 69.883 32.4107ZM66.4889 26.4166C66.3406 26.2848 66.2038 26.1325 66.0486 26.0111C64.5224 24.8521 62.7926 23.9881 60.9488 23.464C59.2697 23.0425 57.5148 23.0242 55.8272 23.4104C54.3917 23.7354 52.9031 23.7429 51.4642 23.432C48.6719 22.8223 46.4653 22.3416 45.2949 20.4726C43.6187 17.7858 44.4047 14.0096 46.1732 12.6807C46.7561 12.2787 47.4753 12.1252 48.1717 12.2541C49.4104 12.3557 50.6555 12.1458 51.7927 11.6445C53.0029 11.0776 54.078 10.2591 54.9466 9.24281C55.1673 9.41333 55.4006 9.56675 55.6167 9.74298C60.8877 14.0341 64.6878 19.8629 66.4889 26.4166ZM16.2703 2.40171C20.7833 2.40912 24.4397 6.0655 24.4466 10.5779C24.4466 14.0718 19.199 22.0706 16.2703 26.1257C13.4934 22.3729 11.0803 18.3635 9.06479 14.1522C8.51556 13.0338 8.18591 11.8207 8.09409 10.5779C8.09922 6.06436 11.7567 2.40684 16.2703 2.40171ZM2.25392 35.1067C2.25848 32.9303 2.47806 30.759 2.90923 28.6254C3.03413 30.2492 3.24572 31.6938 3.43507 32.9468C4.15882 37.7359 4.84264 42.2506 8.37241 46.3792C9.84842 48.1187 12.3202 51.0268 16.142 51.4569C19.9638 51.8869 24.7494 49.6883 26.1319 49.0039L26.6623 48.7364C27.3969 48.2738 28.2364 48.0052 29.1027 47.955C30.5804 48.0891 31.9492 48.7883 32.9245 49.9067C34.9178 52.1133 35.4237 55.7976 34.007 57.7909C33.553 58.3829 32.9262 58.8187 32.2127 59.0377C30.9917 59.446 29.9537 60.2736 29.2835 61.3737C28.2963 63.1611 28.1126 65.2833 28.7788 67.2139C13.3959 64.2334 2.27787 50.7759 2.25392 35.1067ZM34.9589 67.8116C33.8302 67.8116 32.7026 67.7534 31.5797 67.6377C31.4838 67.515 31.3949 67.3873 31.3133 67.2544C30.524 65.7944 30.5154 64.036 31.2911 62.5686C31.7126 61.899 32.3656 61.408 33.1253 61.1889C34.2391 60.8051 35.2109 60.0916 35.9107 59.1437C37.9423 56.287 37.3674 51.3377 34.6612 48.344C33.2536 46.7345 31.262 45.7536 29.1284 45.619H29.0765C27.8463 45.656 26.6475 46.0131 25.5969 46.6553L25.0984 46.9073C22.5462 48.1655 18.9149 49.4094 16.4015 49.1265C13.5008 48.802 11.4864 46.4283 10.1501 44.8564C7.0521 41.2354 6.44584 37.2289 5.74547 32.5921C4.99378 28.6254 4.96412 24.5561 5.6565 20.5787C6.28215 19.312 6.98879 18.0869 7.77299 16.9109C7.81177 16.9884 7.85455 17.0677 7.88991 17.1447C7.96462 17.293 8.04162 17.4401 8.12317 17.5884C8.24009 17.8091 8.35701 18.0299 8.47393 18.2523C8.55434 18.4017 8.6359 18.5511 8.71917 18.7017C8.84293 18.9236 8.96783 19.1454 9.09387 19.3673C9.17828 19.5144 9.26212 19.6621 9.34767 19.8093C9.47771 20.0312 9.60774 20.2519 9.73892 20.4726C9.82504 20.6175 9.91059 20.7612 9.99785 20.9049C10.1359 21.1382 10.275 21.3566 10.4142 21.5819C10.4935 21.7096 10.5716 21.8391 10.6475 21.9651C10.8203 22.2423 10.9919 22.5109 11.1636 22.783C11.2092 22.8531 11.2549 22.9267 11.2993 22.9957C11.5132 23.3271 11.7254 23.6505 11.9335 23.9659C12.0128 24.0828 12.0898 24.1997 12.1674 24.3166C12.2957 24.5094 12.424 24.7021 12.5489 24.8864L12.8261 25.2919C12.9265 25.4402 13.028 25.5884 13.1261 25.7299L13.4061 26.1325C13.4928 26.258 13.5795 26.3806 13.6622 26.4981C13.7449 26.6162 13.8384 26.7496 13.9251 26.87C14.0113 26.9903 14.07 27.0741 14.139 27.1711L14.3723 27.4933L14.5628 27.7574L14.7487 28.0135L14.9004 28.2188L15.043 28.4127L15.128 28.5296C15.2323 28.6711 15.3116 28.7771 15.3338 28.8062C15.554 29.1005 15.9002 29.2739 16.268 29.2739C16.6359 29.2739 16.9821 29.1005 17.2022 28.8062C18.1826 27.5065 26.7826 15.9767 26.7826 10.5779C26.7826 10.2369 26.7615 9.89811 26.729 9.56162C26.7188 9.45782 26.7022 9.35402 26.6891 9.25022C26.6589 9.01639 26.6229 8.78255 26.5727 8.54928C26.5505 8.43237 26.526 8.32286 26.5003 8.21051C26.4461 7.97668 26.3834 7.74341 26.3121 7.50958C26.283 7.41604 26.2585 7.32137 26.2277 7.22954C26.1228 6.91643 26.0047 6.60674 25.8707 6.30561C25.845 6.24801 25.8142 6.18869 25.7874 6.13622C25.6705 5.89326 25.5541 5.65258 25.4195 5.41761C25.3614 5.31267 25.2969 5.21115 25.2342 5.10792C25.1218 4.9237 25.0049 4.74234 24.8834 4.56383C24.811 4.46003 24.7374 4.35623 24.6616 4.25414C24.6217 4.20281 24.588 4.14806 24.5447 4.09787C26.9748 3.27944 29.4951 2.75702 32.0508 2.54201C30.2297 5.97938 29.6348 9.15897 30.3147 12.0032C30.8217 13.9081 31.7838 15.6619 33.1184 17.1133C34.2174 18.4742 35.0079 19.4551 34.9589 21.0566C34.8585 24.4438 31.0333 27.2635 29.5858 28.3289C27.6872 29.6959 25.565 30.7208 23.3139 31.3585C21.1923 32.0514 19.3621 32.6491 18.6623 34.7377C17.9705 37.4958 19.1066 40.3896 21.4905 41.9398C22.9192 42.7114 24.6028 42.8603 26.145 42.351C27.8343 41.9586 29.5807 41.8748 31.2996 42.1046C33.5188 42.4188 35.4322 42.6886 36.3396 43.9593C36.878 44.7184 36.8501 45.5032 36.7451 46.9427C36.5056 48.9805 36.7126 51.0462 37.3508 52.9962C37.8835 54.5942 38.6882 57.0073 40.6217 57.2856C40.7471 57.3056 40.8743 57.3158 41.0009 57.3158C42.3691 57.3158 43.2064 56.1079 44.087 54.8372C44.4759 54.2754 44.9048 53.6692 45.4187 53.0606C47.8226 56.9446 50.2648 60.1857 50.3783 60.3397C50.599 60.634 50.9452 60.8068 51.3125 60.8068C51.6803 60.8068 52.0265 60.634 52.2472 60.3397C54.7812 56.9463 57.091 53.3897 59.1608 49.6945C60.5957 50.1103 61.9622 50.7331 63.217 51.5435C57.3728 61.6178 46.6056 67.8167 34.9589 67.8116ZM56.7603 36.026C58.4958 37.5739 59.4881 39.7891 59.4876 42.1149C59.4876 42.955 59.1465 44.6203 57.5268 47.7834C55.6778 51.2105 53.6018 54.5093 51.3113 57.658C50.2123 56.1267 48.3211 53.4085 46.6289 50.5517C45.6856 48.9856 44.8432 47.3619 44.1058 45.6891C43.5566 44.5707 43.2269 43.3576 43.1351 42.1149C43.1402 37.6013 46.7978 33.9438 51.3113 33.9386C51.564 33.9386 51.8144 33.95 52.0636 33.9728C53.8099 34.1308 55.4582 34.8517 56.7603 36.026ZM67.6227 36.699C67.4214 41.1419 66.3019 45.4946 64.3337 49.4829C63.0538 48.6736 61.6748 48.0315 60.2318 47.5718C61.1341 45.883 61.6765 44.0243 61.8236 42.1149C61.8139 38.1066 59.5349 34.4496 55.9401 32.6748L55.8666 32.6423C55.6053 32.5162 55.3401 32.3982 55.0692 32.2921C54.8833 32.2197 54.6905 32.1632 54.5 32.1027C54.3831 32.0674 54.2782 32.0235 54.1647 31.9858C53.8636 31.9003 53.5573 31.8307 53.2493 31.7731H53.2339C53.0474 31.7383 52.8581 31.7195 52.6687 31.695C49.6654 31.2792 46.6295 32.19 44.351 34.1901C42.072 36.1909 40.7757 39.083 40.799 42.1149C40.8897 43.6719 41.2827 45.1969 41.9557 46.6039C42.6104 48.0948 43.349 49.5474 44.168 50.9544C43.4379 51.7534 42.7695 52.6061 42.1678 53.5055C41.8467 54.0558 41.4412 54.552 40.9661 54.9764C40.7323 54.941 40.2994 54.4425 39.5643 52.257C39.0282 50.5979 38.8599 48.8413 39.0726 47.1109C39.3761 45.5568 39.0778 43.9456 38.2388 42.6031C36.7474 40.5174 34.1439 40.1501 31.6105 39.7908C29.6411 39.5216 27.6393 39.6117 25.7024 40.056C24.2082 40.3417 23.5146 40.4484 22.7213 39.9539C21.2721 38.9604 20.5478 37.2032 20.8757 35.4768C21.1877 34.5426 22.1225 34.205 24.0296 33.5787C26.5203 32.8641 28.8678 31.7235 30.9688 30.207C32.6707 28.9585 37.1598 25.6455 37.2949 21.1256C37.3696 18.6527 36.1326 17.127 34.9366 15.6522C33.8313 14.4682 33.0272 13.0361 32.5914 11.4762C31.9709 8.8738 32.7397 5.82197 34.8248 2.40171H34.9589C41.3893 2.41083 47.6755 4.31117 53.0343 7.86603C52.4155 8.55556 51.6666 9.11562 50.83 9.51428C50.0155 9.86675 49.1253 10.0059 48.2418 9.91922C47.0133 9.76751 45.7734 10.0863 44.7702 10.8118C42.1216 12.8057 40.9348 17.8901 43.3153 21.7085C45.0098 24.4147 47.9042 25.0455 51.065 25.7344C52.7662 26.0938 54.5246 26.0863 56.223 25.7122C57.5861 25.3871 59.0074 25.3911 60.3682 25.7253C61.8995 26.1668 63.3367 26.8865 64.6086 27.8475C65.9294 28.9431 66.9309 30.3735 67.5087 31.9892C67.6045 33.021 67.6638 34.0555 67.6638 35.1067C67.6638 35.6291 67.6535 36.1578 67.6182 36.699H67.6227Z" />
<path d="M16.2704 14.082C18.8506 14.082 20.9425 11.9906 20.9425 9.40991C20.9425 6.82974 18.8506 4.73777 16.2704 4.73777C13.6902 4.73777 11.5983 6.82974 11.5983 9.40991C11.5983 11.9906 13.6902 14.082 16.2704 14.082ZM16.2704 7.07384C17.5605 7.07384 18.6065 8.11982 18.6065 9.40991C18.6065 10.7 17.5605 11.746 16.2704 11.746C14.9803 11.746 13.9343 10.7 13.9343 9.40991C13.9343 8.11982 14.9803 7.07384 16.2704 7.07384Z" />
<path d="M46.6392 40.9468C46.6392 43.5275 48.7312 45.6189 51.3114 45.6189C53.8915 45.6189 55.9835 43.5275 55.9835 40.9468C55.9835 38.3666 53.8915 36.2747 51.3114 36.2747C48.7312 36.2747 46.6392 38.3666 46.6392 40.9468ZM53.6474 40.9468C53.6474 42.2369 52.6014 43.2829 51.3114 43.2829C50.0213 43.2829 48.9753 42.2369 48.9753 40.9468C48.9753 39.6567 50.0213 38.6107 51.3114 38.6107C52.6014 38.6107 53.6474 39.6567 53.6474 40.9468Z" />
</g>
<defs>
<clipPath id="clip0">
<rect width="70" height="70" fill="white"/>
</clipPath>
</defs>
</svg>
