<svg width="70" height="70" viewBox="0 0 70 70" xmlns="http://www.w3.org/2000/svg">
<g clip-path="url(#clip0)">
<path d="M7.00004 38.5C7.64437 38.5 8.16671 37.9777 8.16671 37.3333C8.16671 36.689 7.64437 36.1667 7.00004 36.1667C6.35571 36.1667 5.83337 36.689 5.83337 37.3333C5.83337 37.9777 6.35571 38.5 7.00004 38.5Z"/>
<path d="M11.6667 38.5C12.311 38.5 12.8333 37.9777 12.8333 37.3333C12.8333 36.689 12.311 36.1667 11.6667 36.1667C11.0223 36.1667 10.5 36.689 10.5 37.3333C10.5 37.9777 11.0223 38.5 11.6667 38.5Z"/>
<path fill-rule="evenodd" clip-rule="evenodd" d="M42 3.5525V5.88583L42 8.20167V10.535V15.6007V22.6333V28.4667C42.3727 28.9888 42.6671 29.5627 42.8738 30.17L44.142 35H48.4738H48.5H56C59 35 60.6507 37.3175 60.6667 39.6468V43.8923L60.6667 47.4833V65.3333C60.6667 67.9107 58.5773 70 56 70H21C18.4227 70 16.3333 67.9107 16.3333 65.3333V46.6667H3.5C1.567 46.6667 0 45.0997 0 43.1667V3.5C0 1.567 1.567 0 3.5 0H38.5C40.433 0 42 1.567 42 3.5V3.5525ZM7 13.6815V29.1667H8.63333L13.6593 19.6117C13.9467 19.0504 14.5155 18.6888 15.1457 18.6667C15.7871 18.631 16.394 18.9595 16.7148 19.516L18.4333 22.2367L22.8877 13.7795C23.1792 13.2163 23.7525 12.8548 24.3864 12.8347C25.0203 12.8146 25.6154 13.139 25.942 13.6827L33.4448 25.6667H35V7H13.6757C14.3824 8.90371 13.9154 11.0447 12.4801 12.4812C11.0449 13.9177 8.90433 14.3865 7 13.6815ZM11.6667 8.75C11.6674 8.11613 11.4564 7.50018 11.067 7H7V11.067C7.50018 11.4564 8.11613 11.6674 8.75 11.6667C10.3608 11.6667 11.6667 10.3608 11.6667 8.75ZM22.8095 29.1667H23.7347C24.8702 27.0161 27.1022 25.67 29.5342 25.669H30.6915L24.4848 15.7523L19.8707 24.514L22.8095 29.1667ZM20.0492 29.1667L15.2588 21.5833L11.2653 29.1667H20.0492ZM29.5342 28C27.7032 27.998 26.0773 29.1705 25.501 30.9085L24.43 35H41.7305L40.6385 30.835C40.5007 30.4262 40.2982 30.0422 40.0388 29.6975C40.0207 29.6801 40.0053 29.6609 39.9897 29.6415C39.9803 29.6298 39.9708 29.618 39.9607 29.6065C39.151 28.5922 37.9241 28.0011 36.6263 28H29.5342ZM2.33333 43.1667C2.33333 43.811 2.85567 44.3333 3.5 44.3333H16.3333V39.6667C16.3333 37.0893 18.4227 35 21 35H22.0185L22.9355 31.5H6.41667C5.45017 31.5 4.66667 30.7165 4.66667 29.75V6.41667C4.66667 5.45017 5.45017 4.66667 6.41667 4.66667H35.5833C36.5498 4.66667 37.3333 5.45017 37.3333 6.41667V25.7227C38.1473 25.8058 38.9386 26.0401 39.6667 26.4133V3.5C39.6667 2.85567 39.1443 2.33333 38.5 2.33333H3.5C2.85567 2.33333 2.33333 2.85567 2.33333 3.5V43.1667ZM56 67.6667C57.2887 67.6667 58.3333 66.622 58.3333 65.3333V39.6667C58.3333 38.378 57.2887 37.3333 56 37.3333H21C19.7113 37.3333 18.6667 38.378 18.6667 39.6667V65.3333C18.6667 66.622 19.7113 67.6667 21 67.6667H56Z"/>
<path d="M55.0872 19.8391V22.9183C55.0872 28.7781 49.359 31.7929 46.2462 28.6801C43.1333 25.5672 46.1481 19.8391 52.008 19.8391H55.0872ZM52.5872 22.3391H52.008C48.2403 22.3391 46.5853 25.4837 48.0139 26.9123C49.4426 28.341 52.5872 26.6859 52.5872 22.9183V22.3391ZM70.0084 5.98593C70.0433 6.15364 70.0667 6.32345 70.0784 6.49416L70.0872 6.75075V19.7933C70.0872 25.6531 64.359 28.6679 61.2462 25.5551C58.1861 22.495 61.0477 16.9075 66.7125 16.719L67.008 16.7141L67.5863 16.7138V10.8375L55.0863 13.4413L55.0872 21.1762H52.5872V9.8222C52.5872 8.6433 52.6855 8.03474 52.9787 7.37954C53.2562 6.7596 53.6779 6.24093 54.2282 5.84287C54.757 5.46041 55.2808 5.24354 56.2388 5.02662L56.5397 4.96138L65.5723 3.07958C67.5999 2.65717 69.5859 3.95839 70.0084 5.98593ZM67.5872 19.2141H67.008C63.2403 19.2141 61.5853 22.3587 63.0139 23.7873C64.4069 25.1803 67.431 23.6418 67.5814 20.0719L67.5872 19.7933V19.2141ZM66.2267 5.50553L66.0822 5.52703L57.0496 7.40883C56.211 7.58354 55.9485 7.684 55.6934 7.8685C55.4988 8.00928 55.3587 8.18155 55.2606 8.40081C55.1437 8.66202 55.096 8.91509 55.0883 9.6025L55.0872 9.8222L55.0863 10.8888L67.5863 8.285L67.5872 6.75075C67.5872 6.70793 67.585 6.66515 67.5806 6.62261L67.5609 6.49581C67.4302 5.86824 66.85 5.44943 66.2267 5.50553Z"/>
<path d="M52.5 42H47.8333C47.189 42 46.6666 42.5223 46.6666 43.1667C46.6666 43.811 47.189 44.3333 47.8333 44.3333H52.5C53.1443 44.3333 53.6666 43.811 53.6666 43.1667C53.6666 42.5223 53.1443 42 52.5 42Z"/>
<path d="M52.5 46.6667H47.8333C47.189 46.6667 46.6666 47.189 46.6666 47.8333C46.6666 48.4777 47.189 49 47.8333 49H52.5C53.1443 49 53.6666 48.4777 53.6666 47.8333C53.6666 47.189 53.1443 46.6667 52.5 46.6667Z"/>
<path d="M35.1167 31.0858H31.0485C30.4042 31.0858 29.8818 31.6082 29.8818 32.2525C29.8818 32.8968 30.4042 33.4192 31.0485 33.4192H35.1167C35.761 33.4192 36.2833 32.8968 36.2833 32.2525C36.2833 31.6082 35.761 31.0858 35.1167 31.0858Z"/>
<path d="M33.8334 42C28.0344 42 23.3334 46.701 23.3334 52.5C23.3334 58.299 28.0344 63 33.8334 63C39.6324 63 44.3334 58.299 44.3334 52.5C44.3269 46.7037 39.6297 42.0064 33.8334 42ZM33.8334 60.6667C29.323 60.6667 25.6667 57.0103 25.6667 52.5C25.6667 47.9897 29.323 44.3333 33.8334 44.3333C38.3437 44.3333 42 47.9897 42 52.5C41.9949 57.0082 38.3416 60.6615 33.8334 60.6667Z"/>
<path d="M32.0833 46.6667C30.4318 46.6667 28.9428 47.6615 28.3108 49.1874C27.6788 50.7132 28.0282 52.4695 29.196 53.6374C30.3638 54.8052 32.1201 55.1545 33.646 54.5225C35.1718 53.8905 36.1667 52.4016 36.1667 50.75C36.1667 48.4948 34.3385 46.6667 32.0833 46.6667ZM32.0833 52.5C31.1168 52.5 30.3333 51.7165 30.3333 50.75C30.3333 49.7835 31.1168 49 32.0833 49C33.0498 49 33.8333 49.7835 33.8333 50.75C33.8333 51.7165 33.0498 52.5 32.0833 52.5Z"/>
<path d="M38.5 54.8333C39.1444 54.8333 39.6667 54.311 39.6667 53.6667C39.6667 53.0223 39.1444 52.5 38.5 52.5C37.8557 52.5 37.3334 53.0223 37.3334 53.6667C37.3334 54.311 37.8557 54.8333 38.5 54.8333Z"/>
</g>
<defs>
<clipPath id="clip0">
<rect width="70" height="70" fill="white"/>
</clipPath>
</defs>
</svg>
