<svg fill="none" height="40" viewBox="0 0 40 40" width="40" xmlns="http://www.w3.org/2000/svg"><path clip-rule="evenodd" d="M15.059 1.657c0-.915.738-1.657 1.646-1.657h21.649C39.261 0 40 .742 40 1.657v21.775a1.664 1.664 0 0 1-.947 1.5c-.213.1-.45.157-.7.157H27.06v-1.42h11.295a.236.236 0 0 0 .234-.237V1.657a.236.236 0 0 0-.234-.237h-21.65l-.031.002a.237.237 0 0 0-.203.234v11.362h-1.412zM24 8.757c0-1.96 1.58-3.55 3.53-3.55s3.529 1.59 3.529 3.55c0 1.961-1.58 3.55-3.53 3.55S24 10.719 24 8.758zm3.53-4.97c-2.73 0-4.942 2.225-4.942 4.97 0 2.745 2.213 4.97 4.941 4.97s4.942-2.225 4.942-4.97c0-2.745-2.213-4.97-4.942-4.97zM1.645 14.91c-.908 0-1.646.742-1.646 1.657v21.775A1.654 1.654 0 0 0 1.646 40h21.649c.908 0 1.646-.742 1.646-1.657V16.568c0-.915-.738-1.657-1.646-1.657zm-.21 1.55l.017-.026.026-.03.027-.026a.223.223 0 0 1 .14-.048h21.649a.234.234 0 0 1 .234.237v21.775c0 .13-.105.237-.234.237H1.646a.236.236 0 0 1-.234-.237V16.568c0-.023.002-.045.008-.066zm7.505 7.21c0-1.961 1.58-3.55 3.53-3.55S16 21.707 16 23.668c0 1.96-1.58 3.55-3.53 3.55s-3.529-1.59-3.529-3.55zm3.53-4.97c-2.729 0-4.942 2.225-4.942 4.97s2.213 4.97 4.942 4.97c2.728 0 4.941-2.225 4.941-4.97s-2.213-4.97-4.941-4.97zM6.219 34.082H18.72a3.129 3.129 0 0 0-.551-1.047 4.121 4.121 0 0 0-.346-.388 5.134 5.134 0 0 0-.754-.612c-1.146-.768-2.771-1.267-4.6-1.267-1.83 0-3.454.499-4.6 1.267-.876.588-1.434 1.3-1.651 2.047zm.867-3.228c1.41-.945 3.314-1.506 5.385-1.506 2.068 0 3.972.561 5.383 1.506 1.402.941 2.38 2.32 2.38 3.938 0 .392-.316.71-.705.71H5.41a.708.708 0 0 1-.705-.71c0-1.618.979-2.997 2.38-3.938zm19.973-10.5h7.53a.705.705 0 0 0 .706-.71c0-1.618-.979-2.997-2.38-3.938-1.411-.945-3.315-1.506-5.384-1.506-.158 0-.316.003-.472.01v1.422c.156-.008.314-.012.472-.012 1.828 0 3.453.499 4.6 1.267.373.251.69.525.945.814.344.389.58.805.705 1.233H27.06z" fill="#a0b5cc" fill-rule="evenodd"/></svg>