<svg fill="none" height="42" viewBox="0 0 38 42" width="38" xmlns="http://www.w3.org/2000/svg"><g clip-rule="evenodd" fill="#a0b5cc" fill-rule="evenodd"><path d="M4.45 33.301a1 1 0 1 0 0 2h10a1 1 0 1 0 0-2zM23 1.5H2a.5.5 0 0 0-.5.5v8a.5.5 0 0 0 .5.5h21a.5.5 0 0 0 .5-.5V2a.5.5 0 0 0-.5-.5zM2 0a2 2 0 0 0-2 2v8a2 2 0 0 0 2 2h21a2 2 0 0 0 2-2V2a2 2 0 0 0-2-2z"/><path d="M4.45 3.301a1 1 0 1 0 0 2h10a1 1 0 1 0 0-2zm0 3.398a1 1 0 1 0 0 2h4a1 1 0 1 0 0-2zm20.04 11.602a1 1 0 1 0 0 2h9.059a1 1 0 1 0 0-2zm0 3.398a1 1 0 1 0 0 2h3.53a1 1 0 1 0 0-2zm-20.04 15a1 1 0 1 0 0 2h4a1 1 0 1 0 0-2z"/><path d="M36 16.5H15a.5.5 0 0 0-.5.5v8a.5.5 0 0 0 .5.5h21a.5.5 0 0 0 .5-.5v-8a.5.5 0 0 0-.5-.5zM15 15a2 2 0 0 0-2 2v8a2 2 0 0 0 2 2h21a2 2 0 0 0 2-2v-8a2 2 0 0 0-2-2z"/><path d="M20 19.5h-2a.5.5 0 0 0-.5.5v2a.5.5 0 0 0 .5.5h2a.5.5 0 0 0 .5-.5v-2a.5.5 0 0 0-.5-.5zM18 18a2 2 0 0 0-2 2v2a2 2 0 0 0 2 2h2a2 2 0 0 0 2-2v-2a2 2 0 0 0-2-2zm-12.47.47a.75.75 0 0 1 0 1.06l-.72.72H10a.75.75 0 0 1 0 1.5H4.81l.72.72a.75.75 0 1 1-1.06 1.06l-2-2a.75.75 0 0 1 0-1.06l2-2a.75.75 0 0 1 1.06 0zM23 31.5H2a.5.5 0 0 0-.5.5v8a.5.5 0 0 0 .5.5h21a.5.5 0 0 0 .5-.5v-8a.5.5 0 0 0-.5-.5zM2 30a2 2 0 0 0-2 2v8a2 2 0 0 0 2 2h21a2 2 0 0 0 2-2v-8a2 2 0 0 0-2-2z"/></g></svg>