<svg fill="none" height="44" viewBox="0 0 44 44" width="44" xmlns="http://www.w3.org/2000/svg"><path d="M13.648 7.565L6.331.25a.847.847 0 0 0-1.448.567l.051-.025L4.8 4.77l-3.98.136a.847.847 0 0 0-.57 1.448l7.275 7.306a.847.847 0 0 0 .626.245H9c-5.986 8.686-3.794 20.578 4.895 26.562 8.69 5.984 20.586 3.793 26.572-4.893 5.986-8.686 3.794-20.578-4.895-26.562a19.111 19.111 0 0 0-21.677 0v-.846a.847.847 0 0 0-.246-.601zm11.094-.254c9.626-.013 17.439 7.777 17.452 17.399.012 9.621-7.78 17.432-17.406 17.444S7.35 34.377 7.337 24.756a17.418 17.418 0 0 1 3.855-10.952l1.415-.042 3.387 3.386c-4.223 4.817-3.74 12.144 1.078 16.366s12.15 3.739 16.372-1.078c4.224-4.817 3.741-12.144-1.078-16.366a11.605 11.605 0 0 0-15.17-.107l-3.387-3.387.051-1.396a17.416 17.416 0 0 1 10.882-3.87zm.568 17.963a.846.846 0 0 0 0-1.193l-1.694-1.693a2.54 2.54 0 0 1 1.092-.254 2.54 2.54 0 1 1-2.54 2.54c.002-.38.089-.752.254-1.093l1.694 1.693a.847.847 0 0 0 1.194 0zm-4.133-2.929a4.232 4.232 0 0 0 1.194 5.866 4.235 4.235 0 0 0 5.868-1.194 4.232 4.232 0 0 0-1.194-5.865 4.236 4.236 0 0 0-4.674 0l-4.014-4.013c4.178-3.517 10.418-2.983 13.937 1.194 3.52 4.177 2.985 10.414-1.194 13.932-4.178 3.518-10.418 2.983-13.937-1.194a9.885 9.885 0 0 1 0-12.738zm-9.095-10.293l-3.608.118L2.8 6.498l2.82-.093a.847.847 0 0 0 .847-.846l.093-2.82 5.64 5.706z" fill="#a0b5cc"/></svg>