<svg fill="none" height="35" viewBox="0 0 42 35" width="42" xmlns="http://www.w3.org/2000/svg"><g fill="#a0b5cc"><g clip-rule="evenodd" fill-rule="evenodd"><path d="M11.002 19.099a2.737 2.737 0 0 0-2.728 2.746 2.737 2.737 0 0 0 2.728 2.747 2.737 2.737 0 0 0 2.727-2.747 2.737 2.737 0 0 0-2.727-2.746zm-3.818 2.746c0-2.123 1.709-3.845 3.818-3.845 2.108 0 3.818 1.722 3.818 3.845 0 2.124-1.71 3.845-3.818 3.845-2.109 0-3.818-1.721-3.818-3.845z"/><path d="M6.984 21.845c0-2.233 1.798-4.045 4.019-4.045 2.22 0 4.018 1.812 4.018 4.045s-1.798 4.045-4.018 4.045c-2.22 0-4.019-1.812-4.019-4.045zm4.019-3.645c-1.997 0-3.619 1.63-3.619 3.645s1.622 3.645 3.619 3.645 3.618-1.63 3.618-3.645S13 18.2 11.003 18.2zm0 1.099c-1.395 0-2.528 1.138-2.528 2.546s1.133 2.547 2.528 2.547c1.394 0 2.527-1.14 2.527-2.547S12.397 19.3 11.003 19.3zm-2.928 2.546a2.937 2.937 0 0 1 2.928-2.946c1.618 0 2.927 1.32 2.927 2.946s-1.31 2.947-2.927 2.947a2.937 2.937 0 0 1-2.928-2.947zM6.17 29.901h9.66c-.167-.577-.599-1.128-1.276-1.583-.885-.594-2.14-.98-3.554-.98-1.414 0-2.669.386-3.554.98-.677.455-1.108 1.006-1.276 1.583zm.67-2.497c1.089-.73 2.561-1.165 4.16-1.165s3.071.435 4.16 1.165c1.084.728 1.84 1.795 1.84 3.047 0 .303-.244.55-.545.55H5.544A.547.547 0 0 1 5 30.45c0-1.252.756-2.318 1.84-3.047z"/><path d="M6.73 27.238c1.125-.755 2.638-1.198 4.27-1.198 1.634 0 3.146.443 4.272 1.198 1.12.752 1.929 1.873 1.929 3.213 0 .412-.333.75-.746.75H5.546a.747.747 0 0 1-.745-.75c0-1.34.809-2.46 1.929-3.213zM11 26.44c-1.564 0-2.996.425-4.047 1.13-1.05.705-1.752 1.716-1.752 2.88 0 .195.156.35.345.35h10.91a.347.347 0 0 0 .345-.35c0-1.164-.703-2.175-1.752-2.88-1.051-.705-2.484-1.13-4.048-1.13zm0 1.098c-1.379 0-2.594.377-3.442.946-.542.365-.907.785-1.1 1.217h9.087c-.194-.432-.559-.852-1.101-1.217-.849-.57-2.064-.946-3.443-.946zm-3.665.614c.923-.62 2.218-1.014 3.666-1.014s2.743.395 3.666 1.014c.705.474 1.172 1.06 1.356 1.694a.2.2 0 0 1-.192.255H6.17a.2.2 0 0 1-.192-.255c.184-.634.65-1.22 1.356-1.694z"/></g><path d="M39.793 3.478H23.95a1.35 1.35 0 0 1-.865-.313L20.177.73A3.146 3.146 0 0 0 18.16 0H7.746C6.529 0 5.539.962 5.539 2.145V5.01H2.207C.99 5.011 0 5.973 0 7.156v25.7C0 34.037.99 35 2.207 35h32.047c1.217 0 2.207-.962 2.207-2.145V29.99h3.332c1.217 0 2.207-.963 2.207-2.145V5.622c0-1.182-.99-2.144-2.207-2.144zm-5.097 29.377a.436.436 0 0 1-.442.43H2.207a.436.436 0 0 1-.442-.43V15.222h32.93v17.633zm0-19.348H1.766V7.156c0-.237.198-.43.44-.43H12.62c.318 0 .625.112.865.313l2.907 2.436c.56.47 1.277.729 2.018.729h15.844c.244 0 .442.192.442.429zm5.539 14.338a.436.436 0 0 1-.442.429h-3.332V10.633c0-1.183-.99-2.145-2.207-2.145H18.41c-.318 0-.625-.11-.865-.312L14.638 5.74a3.144 3.144 0 0 0-2.018-.729H7.304V2.145c0-.237.198-.43.442-.43H18.16c.317 0 .624.112.864.313l2.907 2.437c.561.47 1.278.728 2.018.728h15.844c.244 0 .442.193.442.43v22.222z"/><path d="M31.183 18.147h-5.287a.87.87 0 0 0-.882.858.87.87 0 0 0 .882.857h5.287a.87.87 0 0 0 .883-.857.87.87 0 0 0-.883-.858zm0 4.117h-5.287c-.487 0-.882.384-.882.858s.395.858.882.858h5.287c.487 0 .883-.384.883-.858s-.396-.858-.883-.858z"/></g></svg>