<svg fill="none" height="39" viewBox="0 0 36 39" width="36" xmlns="http://www.w3.org/2000/svg"><g fill="#a0b5cc"><path d="M35.357 2.6h-4.5V.65c0-.36-.287-.65-.643-.65h-4.5a.646.646 0 0 0-.643.65V2.6H10.93V.65c0-.36-.288-.65-.643-.65h-4.5a.646.646 0 0 0-.643.65V2.6h-4.5A.646.646 0 0 0 0 3.25v35.1c0 .36.287.65.643.65h34.714c.356 0 .643-.29.643-.65V3.25c0-.36-.287-.65-.643-.65zm-9-1.3h3.214v3.9h-3.214V3.25zM6.43 1.3h3.214v3.9H6.429V3.25zM1.286 3.9h3.857v1.95c0 .36.287.65.643.65h4.5c.355 0 .643-.29.643-.65V3.9H25.07v1.95c0 .36.288.65.643.65h4.5c.356 0 .643-.29.643-.65V3.9h3.857v5.85H1.286zm0 33.8V11.05h33.428V37.7z"/><path d="M23.142 14.95H5.785V33.8h24.429V14.95h-5.786zm-4.5 1.3h4.5v4.55h-4.5zm4.5 10.4h-4.5V22.1h4.5zM12.857 22.1h4.5v4.55h-4.5zm0-5.85h4.5v4.55h-4.5zm-5.786 0h4.5v4.55h-4.5zm0 5.85h4.5v4.55h-4.5zm4.5 10.4h-4.5v-4.55h4.5zm5.786 0h-4.5v-4.55h4.5zm5.785 0h-4.5v-4.55h4.5zm5.786 0h-4.5v-4.55h4.5zm0-5.85h-4.5V22.1h4.5zm0-10.4v4.55h-4.5v-4.55z"/></g></svg>