<svg fill="none" height="34" viewBox="0 0 44 34" width="44" xmlns="http://www.w3.org/2000/svg"><g fill="#a0b5cc"><path d="M27.718 16.376l-8.345-5.174a.78.78 0 0 0-.773-.024.738.738 0 0 0-.393.648v10.348c0 .27.151.518.394.648a.775.775 0 0 0 .772-.024l8.345-5.174a.736.736 0 0 0 .351-.624.736.736 0 0 0-.351-.624zm-7.994 4.452v-7.656L25.897 17z"/><path d="M43.241 0H.76A.749.749 0 0 0 0 .74v32.52c0 .41.34.74.759.74H43.24c.42 0 .759-.33.759-.74V.74c0-.41-.34-.74-.759-.74zM7.586 16.26H1.517V9.61h6.07zm-6.069 1.48h6.07v6.651h-6.07zm7.586 7.39V1.478h25.794v31.044H9.103zm33.38-8.87h-6.07V9.61h6.07zm-6.07 1.48h6.07v6.651h-6.07zm6.07-16.262V8.13h-6.07V1.478zm-40.966 0h6.07V8.13h-6.07zm0 31.044V25.87h6.07v6.652zm40.966 0h-6.07V25.87h6.07z"/></g></svg>