<svg width="177" height="36" viewBox="0 0 177 36" fill="none" xmlns="http://www.w3.org/2000/svg">
<path d="M53.7311 26.1602L52.967 27.8081H49.8467V4.80103H54.0495V12.47C54.0495 12.47 55.7052 10.8855 58.4434 10.8855C62.6462 10.8855 66.3396 14.5616 66.3396 19.4419C66.3396 24.3855 62.6462 28.0616 58.4434 28.0616C55.5778 27.9982 53.7311 26.1602 53.7311 26.1602ZM57.9976 23.9419C60.3538 23.9419 62.2005 22.1038 62.2005 19.3785C62.2005 16.6531 60.3538 14.8151 57.9976 14.8151C55.5778 14.8151 53.7948 16.6531 53.7948 19.3785C53.7948 22.1038 55.5778 23.9419 57.9976 23.9419Z" fill="#4680C2"/>
<path d="M69.0771 20.8364V11.0125H73.28V20.3294C73.28 22.5477 74.7446 24.0054 76.7823 24.0054C78.8201 24.0054 80.2847 22.5477 80.2847 20.3294V11.0125H84.4875V27.8082H81.3672L80.6031 26.1603C80.6031 26.1603 78.5654 27.9984 75.8271 27.9984C71.879 27.9984 69.0771 25.273 69.0771 20.8364Z" fill="#4680C2"/>
<path d="M91.429 22.4844C91.62 23.5619 92.5115 24.5126 93.9762 24.5126C95.4408 24.5126 96.396 23.6252 96.396 22.6745C96.396 20.2661 87.7356 21.7872 87.7356 15.8928C87.7356 13.1675 90.1554 10.759 93.7851 10.759C97.7969 10.759 100.026 12.914 100.408 15.8928H96.396C96.2049 15.1323 95.3134 14.2449 93.9762 14.2449C92.7026 14.2449 91.9384 15.0055 91.9384 15.8928C91.9384 18.2379 100.599 16.7802 100.599 22.8013C100.599 25.5266 98.179 27.9351 94.3582 27.9351C89.9644 27.9351 87.7356 25.7168 87.3535 22.421H91.429V22.4844Z" fill="#4680C2"/>
<path d="M103.337 6.44907C103.337 5.18147 104.419 4.104 105.757 4.104C107.03 4.104 108.113 5.18147 108.113 6.44907C108.113 7.71668 107.03 8.79415 105.757 8.79415C104.483 8.79415 103.337 7.71668 103.337 6.44907ZM107.794 27.8082H103.592V11.0125H107.794V27.8082Z" fill="#4680C2"/>
<path d="M126.962 17.9211V27.8084H122.759V18.4915C122.759 16.2732 121.295 14.8155 119.257 14.8155C117.219 14.8155 115.755 16.2732 115.755 18.4915V27.8084H111.552V11.0127H114.672L115.436 12.6605C115.436 12.6605 117.474 10.8225 120.212 10.8225C124.224 10.8225 126.962 13.5479 126.962 17.9211Z" fill="#4680C2"/>
<path d="M145.557 22.6746C144.665 25.2098 141.863 27.9986 138.043 27.9986C133.458 27.9986 129.573 24.1324 129.573 19.3788C129.573 14.6253 133.458 10.8225 138.043 10.8225C142.436 10.8225 146.066 14.3084 146.066 19.3788C146.066 20.1394 145.875 21.0267 145.875 21.0267H134.094C134.477 22.6746 135.75 23.9422 137.979 23.9422C140.208 23.9422 141.099 22.6746 141.099 22.6746H145.557ZM133.967 18.1112H142.054C141.672 16.2732 140.208 14.8155 138.043 14.8155C135.877 14.8155 134.349 16.2732 133.967 18.1112Z" fill="#4680C2"/>
<path d="M151.861 22.4844C152.052 23.5619 152.943 24.5126 154.408 24.5126C155.872 24.5126 156.828 23.6252 156.828 22.6745C156.828 20.2661 148.167 21.7872 148.167 15.8928C148.167 13.1675 150.587 10.759 154.217 10.759C158.229 10.759 160.457 12.914 160.839 15.8928H156.828C156.637 15.1323 155.745 14.2449 154.408 14.2449C153.134 14.2449 152.37 15.0055 152.37 15.8928C152.37 18.2379 161.03 16.7802 161.03 22.8013C161.03 25.5266 158.611 27.9351 154.79 27.9351C150.396 27.9351 148.167 25.7168 147.785 22.421H151.861V22.4844Z" fill="#4680C2"/>
<path d="M167.08 22.4844C167.271 23.5619 168.163 24.5126 169.628 24.5126C171.092 24.5126 172.047 23.6252 172.047 22.6745C172.047 20.2661 163.387 21.7872 163.387 15.8928C163.387 13.1675 165.807 10.759 169.436 10.759C173.448 10.759 175.677 12.914 176.059 15.8928H172.047C171.856 15.1323 170.965 14.2449 169.628 14.2449C168.354 14.2449 167.59 15.0055 167.59 15.8928C167.59 18.2379 176.25 16.7802 176.25 22.8013C176.25 25.5266 173.83 27.9351 170.01 27.9351C165.616 27.9351 163.387 25.7168 163.005 22.421H167.08V22.4844Z" fill="#4680C2"/>
<rect x="3.74121" y="8" width="30.9119" height="23" fill="white"/>
<path fill-rule="evenodd" clip-rule="evenodd" d="M24.3113 0C14.1863 0 23.3561 0 13.2311 0C3.10613 0 0.75 2.40845 0.75 12.4859C0.75 18.1268 0.75 13.4366 0.75 23.5141C0.75 33.5915 3.16981 36 13.2948 36C23.4198 36 14.25 36 24.375 36C34.5 36 36.8561 33.5282 36.8561 23.4507C36.8561 13.3732 36.8561 22.5 36.8561 12.4225C36.8561 2.34507 34.4363 0 24.3113 0ZM29.9151 25.669H27.3042C26.2854 25.669 26.0307 24.8451 24.2476 23.0704C22.6557 21.5493 22.0189 21.3592 21.6368 21.3592C21.1274 21.3592 20.9363 21.4859 20.9363 22.2465V24.5915C20.9363 25.2254 20.7453 25.6056 19.0259 25.6056C16.2241 25.6056 13.1675 23.8944 11.0024 20.7887C7.75472 16.2254 6.86321 12.8028 6.86321 12.1056C6.86321 11.7254 6.99057 11.3451 7.75472 11.3451H10.3656C11.066 11.3451 11.3208 11.662 11.5755 12.3592C12.8491 16.0986 15.0142 19.331 15.9057 19.331C16.2241 19.331 16.4151 19.2042 16.4151 18.3169V14.5775C16.2877 12.8028 15.3962 12.6761 15.3962 12.0423C15.3962 11.7254 15.6509 11.4085 16.0967 11.4085H20.2358C20.809 11.4085 21 11.7254 21 12.3592V17.5563C21 18.1268 21.2547 18.3169 21.3821 18.3169C21.7005 18.3169 22.0189 18.1268 22.592 17.493C24.5024 15.4014 25.8396 12.1056 25.8396 12.1056C25.9033 11.7887 26.2217 11.4085 26.8585 11.4085H29.4693C30.2972 11.4085 30.4245 11.7887 30.2972 12.3592C29.9788 13.8803 26.7311 18.3803 26.7311 18.3803C26.4764 18.8239 26.3491 19.0775 26.7311 19.5211C26.9858 19.9014 27.941 20.662 28.5142 21.4225C29.6604 22.6901 30.4882 23.7676 30.7429 24.4648C30.9976 25.2887 30.6792 25.669 29.9151 25.669Z" fill="#4680C2"/>
</svg>
