<svg width="3736" height="627" viewBox="0 0 3736 627" fill="none" xmlns="http://www.w3.org/2000/svg">
<rect width="3736" height="169" transform="matrix(1 0 0 -1 0 627)" fill="#CBECE0"/>
<path d="M1736.57 498.207C1544.36 527.215 1578.65 627 1148 627H2588C2317.87 611.42 2345.12 523.843 2200.99 542.869C1933.45 578.183 1979.17 461.594 1736.57 498.207Z" fill="white"/>
<path d="M2966.5 458.464H769C1176 422.964 1146.5 264.964 1309 240.964C1447 220.583 1460 296.464 1680 309.464C1900 322.464 1867.72 35.1781 2151 2.96408C2417 -27.2843 2491 180.964 2624.5 309.464C2731.3 412.264 2897 451.631 2966.5 458.464Z" fill="#CBECE0"/>
<path d="M2966.5 458.464H769C1176 422.964 1146.5 264.964 1309 240.964C1447 220.583 1460 296.464 1680 309.464C1900 322.464 1867.72 35.1781 2151 2.96408C2417 -27.2843 2491 180.964 2624.5 309.464C2731.3 412.264 2897 451.631 2966.5 458.464Z" fill="url(#paint0_linear)"/>
<defs>
<linearGradient id="paint0_linear" x1="1868" y1="70.2156" x2="1868" y2="305.716" gradientUnits="userSpaceOnUse">
<stop stop-color="white" stop-opacity="0.42"/>
<stop offset="1" stop-color="#E7EEF6" stop-opacity="0"/>
</linearGradient>
</defs>
</svg>
