<svg width="870" height="2343" viewBox="0 0 870 2343" fill="none" xmlns="http://www.w3.org/2000/svg">
<path d="M643.97 2334.08C683.435 2309.63 721.304 2286.53 748.47 2259.36C819.418 2188.41 891.172 2039.35 854.999 1871L850.999 1857.5" stroke="white" stroke-width="3" stroke-linecap="round" stroke-dasharray="1 14"/>
<path d="M643.97 1510.5C537.97 1263 300.234 1386.29 178.47 1323.5C95.1326 1280.53 56.9692 1181.5 81.4692 1082.5L85.5 1069.5" stroke="#AFC5DE" stroke-width="3" stroke-linecap="round" stroke-dasharray="1 14"/>
<path d="M806.47 1748.5C827.622 1786.15 841.245 1821.81 850.993 1858L851 1858.5" stroke="#AFC5DE" stroke-width="3" stroke-linecap="round" stroke-dasharray="1 14"/>
<path d="M482 2V420V436" stroke="#AFC5DE" stroke-width="3" stroke-linecap="round" stroke-dasharray="1 14"/>
<path d="M82.999 1078.5L85.499 1069.5C99.499 1017.5 133.499 978 157.999 960C200.999 926.5 295.799 851 330.999 817C456.599 775.4 481.499 646 481.999 546V435.5V435" stroke="white" stroke-width="3" stroke-linecap="round" stroke-dasharray="1 14"/>
</svg>
