<svg width="3736" height="1368" viewBox="0 0 3736 1368" fill="none" xmlns="http://www.w3.org/2000/svg"><path fill-rule="evenodd" clip-rule="evenodd" d="M0 639c31.044 11.444 770.178 206.711 973.863 206.711 100.507 0 226.707-54.986 345.037-106.539 88.34-38.489 172.29-75.066 237.88-85.418 73.8-11.65 126.25 1.347 179.8 14.62 50.97 12.631 102.95 25.512 175.3 17.633 70.21-7.644 105.34-63.74 143.59-124.813 33.81-53.995 70.06-111.881 135.14-143.614 62.55-30.498 126.19-39.825 197.11-50.217 78.99-11.576 167-24.475 272.57-69.431 146.54-62.407 231.59-192.057 279.12-264.501C2948.16 20.087 2955.64 8.685 2962 0h774v1368H2647.37c-13.97-.27-27.89-.16-41.62-.05-2.33.02-4.65.03-6.97.05h-26.32c-78.8-.88-147.36-12.67-178.62-113.68-5.01-16.2-8.43-33.89-11.94-52-14.89-76.93-31.26-161.51-177.14-172.03-129.01-9.31-180.03 32.91-250.04 90.83-71.37 59.06-162.47 134.44-376.05 188.21C1382.95 1358.6 1289 1368 1061.5 1368H0V639z" fill="#FEECA9"/><path fill-rule="evenodd" clip-rule="evenodd" d="M0 639c31.044 11.444 770.178 206.711 973.863 206.711 100.507 0 226.707-54.986 345.037-106.539 88.34-38.489 172.29-75.066 237.88-85.418 73.8-11.65 126.25 1.347 179.8 14.62 50.97 12.631 102.95 25.512 175.3 17.633 70.21-7.644 105.34-63.74 143.59-124.813 33.81-53.995 70.06-111.881 135.14-143.614 62.55-30.498 126.19-39.825 197.11-50.217 78.99-11.576 167-24.475 272.57-69.431 146.54-62.407 231.59-192.057 279.12-264.501C2948.16 20.087 2955.64 8.685 2962 0h774v1368H2647.37c-13.97-.27-27.89-.16-41.62-.05-2.33.02-4.65.03-6.97.05h-26.32c-78.8-.88-147.36-12.67-178.62-113.68-5.01-16.2-8.43-33.89-11.94-52-14.89-76.93-31.26-161.51-177.14-172.03-129.01-9.31-180.03 32.91-250.04 90.83-71.37 59.06-162.47 134.44-376.05 188.21C1382.95 1358.6 1289 1368 1061.5 1368H0V639z" fill="url(#a)"/><path fill-rule="evenodd" clip-rule="evenodd" d="M0 639c31.044 11.444 770.178 206.711 973.863 206.711 100.507 0 226.707-54.986 345.037-106.539 88.34-38.489 172.29-75.066 237.88-85.418 73.8-11.65 126.25 1.347 179.8 14.62 50.97 12.631 102.95 25.512 175.3 17.633 70.21-7.644 105.34-63.74 143.59-124.813 33.81-53.995 70.06-111.881 135.14-143.614 62.55-30.498 126.19-39.825 197.11-50.217 78.99-11.576 167-24.475 272.57-69.431 146.54-62.407 231.59-192.057 279.12-264.501C2948.16 20.087 2955.64 8.685 2962 0h774v1368H2647.37c-13.97-.27-27.89-.16-41.62-.05-2.33.02-4.65.03-6.97.05h-26.32c-78.8-.88-147.36-12.67-178.62-113.68-5.01-16.2-8.43-33.89-11.94-52-14.89-76.93-31.26-161.51-177.14-172.03-129.01-9.31-180.03 32.91-250.04 90.83-71.37 59.06-162.47 134.44-376.05 188.21C1382.95 1358.6 1289 1368 1061.5 1368H0V639z" fill="url(#b)"/><defs><linearGradient id="a" x2="1" gradientUnits="userSpaceOnUse" gradientTransform="matrix(297.152 893.718 -2155.24 431.974 2748.97 258.295)"><stop stop-color="#FFDA93"/><stop offset="1" stop-color="#FEECA9" stop-opacity="0"/></linearGradient><linearGradient id="b" x2="1" gradientUnits="userSpaceOnUse" gradientTransform="matrix(0 1300 -3135 0 3536 68)"><stop stop-color="#9BC3F1"/><stop offset="1" stop-color="#D6E7FB"/></linearGradient></defs></svg>