<svg width="112" height="584" viewBox="0 0 112 584" fill="none" xmlns="http://www.w3.org/2000/svg">
<path d="M2.00121 2C2.00121 2 45.3756 134.605 46.5012 326.5C47.6593 523.942 99.5 570 99.5 570" stroke="#BBD4F0" stroke-width="3" stroke-linecap="round" stroke-dasharray="6 12"/>
<path d="M106.77 572.725C106.646 571.906 107.209 571.141 108.029 571.017C108.848 570.893 109.612 571.456 109.736 572.275L111.113 581.359C111.238 582.178 110.674 582.943 109.855 583.067C109.036 583.191 108.271 582.628 108.147 581.809L106.77 572.725Z" fill="#BBD4F0"/>
<path d="M109.757 580.519C110.574 580.655 111.127 581.427 110.992 582.244C110.856 583.062 110.084 583.614 109.267 583.479L99.1522 581.804C98.3349 581.669 97.782 580.897 97.9174 580.079C98.0527 579.262 98.825 578.709 99.6423 578.844L109.757 580.519Z" fill="#BBD4F0"/>
</svg>
