<svg width="31" height="29" fill="none" xmlns="http://www.w3.org/2000/svg"><path d="M19.923 5.953c-5.86 0-10.626 4.767-10.626 10.626 0 5.86 4.767 10.627 10.626 10.627.55 0 1.109-.044 1.659-.131l6.464 1.593a.548.548 0 00.68-.533v-5.606a10.558 10.558 0 001.824-5.95c0-5.86-4.767-10.626-10.627-10.626zm7.8 16.097a.544.544 0 00-.094.377v5.008L21.809 26a.541.541 0 00-.287-.028c-.53.09-1.068.136-1.598.136-5.255 0-9.53-4.275-9.53-9.529s4.275-9.529 9.53-9.529c5.253 0 9.528 4.275 9.528 9.529a9.46 9.46 0 01-1.728 5.47z" fill="#4680C2" stroke="#4680C2" stroke-width=".4"/><path d="M3.682 27.82a.548.548 0 00.74.444l6.286-2.408c.487.115.986.202 1.486.258a.544.544 0 00.606-.483.548.548 0 00-.483-.607 11.448 11.448 0 01-1.52-.276.553.553 0 00-.388.047l-5.726 2.194-.903-7.25a.55.55 0 00-.077-.284 11.644 11.644 0 01-.845-1.742C.591 11.794 3.561 5.134 9.48 2.866a11.457 11.457 0 0111.809 2.192.548.548 0 10.734-.816A12.547 12.547 0 009.087 1.841C2.604 4.326-.65 11.622 1.834 18.107c.236.612.525 1.216.86 1.796l.988 7.917z" fill="#4680C2" stroke="#4680C2" stroke-width=".4"/><path d="M14.677 17.506a1.427 1.427 0 100-2.854 1.427 1.427 0 000 2.854zm5.145 0a1.427 1.427 0 100-2.854 1.427 1.427 0 000 2.854zm5.146 0a1.427 1.427 0 100-2.854 1.427 1.427 0 000 2.854z" fill="#4680C2" stroke="#4680C2" stroke-width=".4"/></svg>