<svg width="18" height="23" viewBox="0 0 18 23" fill="none" xmlns="http://www.w3.org/2000/svg">
<path d="M17.2291 10.2262C18.173 10.8131 18.173 12.1869 17.2291 12.7739L2.43098 21.9748C1.43178 22.596 0.138944 21.8775 0.138944 20.7009L0.138944 2.29913C0.138944 1.12255 1.43178 0.404024 2.43097 1.02528L17.2291 10.2262Z" fill="#202239"/>
<path d="M17.2291 10.2262C18.173 10.8131 18.173 12.1869 17.2291 12.7739L2.43098 21.9748C1.43178 22.596 0.138944 21.8775 0.138944 20.7009L0.138944 2.29913C0.138944 1.12255 1.43178 0.404024 2.43097 1.02528L17.2291 10.2262Z" fill="url(#paint0_linear)" fill-opacity="0.2"/>
<path d="M17.2291 10.2262C18.173 10.8131 18.173 12.1869 17.2291 12.7739L2.43098 21.9748C1.43178 22.596 0.138944 21.8775 0.138944 20.7009L0.138944 2.29913C0.138944 1.12255 1.43178 0.404024 2.43097 1.02528L17.2291 10.2262Z" fill="white"/>
<defs>
<linearGradient id="paint0_linear" x1="-11.1798" y1="-8.20892" x2="23.9883" y2="14.5069" gradientUnits="userSpaceOnUse">
<stop stop-color="#0B1051"/>
<stop offset="0.239583" stop-color="#270F75"/>
<stop offset="1" stop-color="#64168D"/>
</linearGradient>
</defs>
</svg>
