<svg width="276" height="57" viewBox="0 0 276 57" fill="none" xmlns="http://www.w3.org/2000/svg">
<g clip-path="url(#clip0)">
<path d="M83.22 39.5L82.05 42.1H77.16V5.79H83.79V17.87C85.7141 16.2074 88.1771 15.3011 90.72 15.32C97.35 15.32 103.11 21.09 103.11 28.84C103.11 36.59 97.35 42.4 90.72 42.4C87.9474 42.3941 85.2753 41.3609 83.22 39.5ZM89.85 36C93.58 36 96.48 33.14 96.48 28.81C96.48 24.48 93.58 21.62 89.85 21.62C86.12 21.62 83.22 24.47 83.22 28.81C83.22 33.15 86.08 36 89.85 36Z" fill="white"/>
<path d="M107.32 31.13V15.58H114V30.27C114 33.73 116.3 36.03 119.46 36.03C122.62 36.03 124.97 33.73 124.97 30.27V15.58H131.6V42.1H126.7L125.53 39.5C123.43 41.2865 120.786 42.3087 118.03 42.4C111.66 42.4 107.32 38.07 107.32 31.13Z" fill="white"/>
<path d="M142.44 33.73C142.605 34.6548 143.103 35.4871 143.84 36.0695C144.577 36.6518 145.502 36.9437 146.44 36.89C148.73 36.89 150.21 35.47 150.21 34.04C150.21 30.27 136.65 32.61 136.65 23.38C136.65 19.05 140.42 15.32 146.18 15.32C152.51 15.32 155.98 18.74 156.54 23.38H150.21C149.936 22.6044 149.424 21.9353 148.747 21.4684C148.07 21.0014 147.262 20.7605 146.44 20.78C144.44 20.78 143.28 21.95 143.28 23.38C143.28 27.1 156.84 24.81 156.84 34.29C156.84 38.63 153.07 42.4 147.05 42.4C140.12 42.4 136.65 38.93 136.05 33.73H142.44Z" fill="white"/>
<path d="M161.12 8.39C161.17 7.43024 161.586 6.52615 162.283 5.86436C162.98 5.20256 163.904 4.83359 164.865 4.83359C165.826 4.83359 166.75 5.20256 167.447 5.86436C168.144 6.52615 168.56 7.43024 168.61 8.39C168.56 9.34977 168.144 10.2539 167.447 10.9157C166.75 11.5774 165.826 11.9464 164.865 11.9464C163.904 11.9464 162.98 11.5774 162.283 10.9157C161.586 10.2539 161.17 9.34977 161.12 8.39ZM168.05 42.1H161.42V15.58H168.05V42.1Z" fill="white"/>
<path d="M198.19 26.54V42.1H191.56V27.41C191.56 23.94 189.26 21.65 186.05 21.65C182.84 21.65 180.59 23.94 180.59 27.41V42.1H174V15.58H178.9L180.07 18.18C182.179 16.4135 184.82 15.4063 187.57 15.32C193.85 15.32 198.19 19.61 198.19 26.54Z" fill="white"/>
<path d="M227.37 34C226.481 36.4206 224.88 38.515 222.777 40.0074C220.674 41.4998 218.168 42.32 215.59 42.36C211.999 42.36 208.555 40.9335 206.016 38.3942C203.477 35.855 202.05 32.411 202.05 28.82C202.05 25.229 203.477 21.785 206.016 19.2458C208.555 16.7065 211.999 15.28 215.59 15.28C222.48 15.28 228.24 20.74 228.24 28.8C228.219 29.672 228.132 30.5411 227.98 31.4H209.53C210.09 34 212.13 35.99 215.59 35.99C216.505 36.0535 217.423 35.9062 218.272 35.5595C219.122 35.2127 219.881 34.6758 220.49 33.99L227.37 34ZM209.22 26.81H221.92C221.674 25.3236 220.896 23.9771 219.732 23.0208C218.568 22.0644 217.096 21.5631 215.59 21.61C214.076 21.5737 212.6 22.0831 211.43 23.0451C210.261 24.0071 209.476 25.3576 209.22 26.85V26.81Z" fill="white"/>
<path d="M237.32 33.73C237.487 34.6538 237.985 35.4849 238.722 36.0668C239.459 36.6488 240.383 36.9415 241.32 36.89C243.62 36.89 245.1 35.47 245.1 34.04C245.1 30.27 231.53 32.61 231.53 23.38C231.53 19.05 235.31 15.32 241.07 15.32C247.39 15.32 250.86 18.74 251.42 23.38H245.1C244.822 22.6053 244.307 21.9377 243.629 21.4712C242.951 21.0047 242.143 20.7629 241.32 20.78C239.32 20.78 238.16 21.95 238.16 23.38C238.16 27.1 251.73 24.81 251.73 34.29C251.73 38.63 247.95 42.4 241.93 42.4C235 42.4 231.53 38.93 230.93 33.73H237.32Z" fill="white"/>
<path d="M261.24 33.73C261.407 34.6538 261.905 35.4849 262.642 36.0668C263.379 36.6488 264.303 36.9415 265.24 36.89C267.54 36.89 269.02 35.47 269.02 34.04C269.02 30.27 255.45 32.61 255.45 23.38C255.45 19.05 259.22 15.32 264.99 15.32C271.31 15.32 274.78 18.74 275.34 23.38H269.02C268.742 22.6053 268.227 21.9377 267.549 21.4712C266.871 21.0047 266.063 20.7629 265.24 20.78C263.24 20.78 262.08 21.95 262.08 23.38C262.08 27.1 275.64 24.81 275.64 34.29C275.64 38.63 271.87 42.4 265.85 42.4C258.92 42.4 255.45 38.93 254.85 33.73H261.24Z" fill="white"/>
<path fill-rule="evenodd" clip-rule="evenodd" d="M37 0H19.65C3.78 0 0 3.78 0 19.65V37C0 52.91 3.78 56.69 19.65 56.69H37C52.87 56.69 56.65 52.91 56.65 37.04V19.65C56.69 3.78 52.91 0 37 0ZM45.73 40.45H41.64C40.06 40.45 39.64 39.2 36.8 36.39C34.34 34.03 33.29 33.72 32.68 33.72C31.85 33.72 31.6 33.96 31.6 35.14V38.85C31.6 39.85 31.27 40.45 28.6 40.45C24.22 40.45 19.4 37.79 15.99 32.89C10.86 25.71 9.46 20.28 9.46 19.18C9.46 18.57 9.7 18.01 10.88 18.01H15.01C16.07 18.01 16.47 18.47 16.86 19.62C18.86 25.51 22.29 30.62 23.7 30.62C24.22 30.62 24.46 30.37 24.46 29.04V23C24.31 20.2 22.82 20 22.82 19C22.8193 18.8598 22.8481 18.7211 22.9045 18.5927C22.9608 18.4644 23.0436 18.3493 23.1473 18.255C23.251 18.1608 23.3734 18.0893 23.5065 18.0454C23.6397 18.0014 23.7805 17.986 23.92 18H30.42C31.29 18 31.6 18.47 31.6 19.52V27.71C31.6 28.59 31.98 28.89 32.24 28.89C32.77 28.89 33.24 28.59 34.17 27.62C36.2609 25.0623 37.9718 22.2163 39.25 19.17C39.3832 18.8066 39.6306 18.4961 39.9551 18.2852C40.2797 18.0743 40.6638 17.9742 41.05 18H45.18C46.43 18 46.69 18.65 46.43 19.52C45.91 21.93 40.87 29.02 40.87 29.02C40.43 29.73 40.26 30.08 40.87 30.86C41.31 31.48 42.75 32.7 43.72 33.86C45.49 35.86 46.83 37.55 47.2 38.71C47.57 39.87 47 40.45 45.77 40.45H45.73Z" fill="white"/>
</g>
<defs>
<clipPath id="clip0">
<rect width="275.67" height="56.69" fill="white"/>
</clipPath>
</defs>
</svg>
