<svg width="22" height="29" fill="#fff" xmlns="http://www.w3.org/2000/svg"><path d="M21.55 6.077a.672.672 0 00-.196-.469L16.203.457h-.001a.67.67 0 00-.475-.197H1.417C.635.26 0 .895 0 1.676v25.908C0 28.364.635 29 1.417 29h18.717c.781 0 1.417-.635 1.417-1.416v-21.5l-.002-.007zm-5.15-3.52l2.853 2.854h-2.782a.071.071 0 01-.071-.071V2.557zm3.805 25.027a.07.07 0 01-.07.07H1.416a.07.07 0 01-.071-.07V1.676a.07.07 0 01.07-.07h13.638V5.34c0 .781.635 1.417 1.417 1.417h3.734v20.827z"/><path d="M16.73 9.466H4.82a.673.673 0 000 1.346h11.91a.673.673 0 000-1.346zm0 4.061H4.82a.673.673 0 000 1.346h11.91a.673.673 0 000-1.346zm0 4.061H4.82a.673.673 0 000 1.346h11.91a.673.673 0 100-1.346zm-5.955 4.061H4.82a.673.673 0 000 1.346h5.955a.673.673 0 000-1.346z"/></svg>