<svg xmlns="http://www.w3.org/2000/svg" xmlns:xlink="http://www.w3.org/1999/xlink"><defs>
<linearGradient id="paint0_linear" x1="-11.1798" y1="-8.20892" x2="23.9883" y2="14.5069" gradientUnits="userSpaceOnUse">
<stop stop-color="#0B1051"/>
<stop offset="0.239583" stop-color="#270F75"/>
<stop offset="1" stop-color="#64168D"/>
</linearGradient>
</defs><symbol id="icon-arrow-btn" viewBox="0 0 6 10">
<path d="M1 1L5 5L1 9" stroke-width="1.5" stroke-linecap="round" stroke-linejoin="round"/>
</symbol><symbol id="icon-arrow-next" viewBox="0 0 74 34">
<path d="M-1.31134e-06 17L71 17M71 17L56.1034 32M71 17L56.1034 2" stroke-width="4"/>
</symbol><symbol id="icon-arrow-prev" viewBox="0 0 74 34">
<path d="M74 17H3M3 17L17.8966 2M3 17L17.8966 32" stroke-width="4"/>
</symbol><symbol id="icon-arrow-top" viewBox="0 0 22 28">
<path d="M10.9987 1.0767L1.76796 10.3075M10.9987 1.0767L20.2295 10.3075M10.9987 1.0767L10.9987 26.9229" stroke="white" stroke-width="2" stroke-linecap="round" stroke-linejoin="round"/>
</symbol><symbol id="icon-arrow" viewBox="0 0 16 10">
<path fill-rule="evenodd" clip-rule="evenodd" d="M6.58606 8.18137L6.58594 8.18149L8.00015 9.59571L8.00027 9.59559L8.00083 9.59614L9.41504 8.18193L9.41449 8.18137L15.7783 1.81753L14.3641 0.40332L8.00027 6.76716L1.63687 0.403756L0.222656 1.81797L6.58606 8.18137Z"/>
</symbol><symbol id="icon-calendar" viewBox="0 0 56 56">
<path d="M38.5 6.5C39.2797 6.5 39.9204 7.09489 39.9931 7.85554L40 8L40.0014 9.067C41.9487 9.20285 42.925 9.54316 43.9074 10.0685C45.2111 10.7658 46.2342 11.7889 46.9315 13.0926C47.6287 14.3963 48 15.6895 48 19.2555V38.7445C48 42.3105 47.6287 43.6037 46.9315 44.9074C46.2342 46.2111 45.2111 47.2342 43.9074 47.9315C42.6037 48.6287 41.3105 49 37.7445 49H18.2555C14.6895 49 13.3963 48.6287 12.0926 47.9315C10.7889 47.2342 9.76576 46.2111 9.06853 44.9074C8.3713 43.6037 8 42.3105 8 38.7445V19.2555C8 15.6895 8.3713 14.3963 9.06853 13.0926C9.76576 11.7889 10.7889 10.7658 12.0926 10.0685C13.0751 9.54307 14.0517 9.20273 15.9996 9.06693L16 8C16 7.17157 16.6716 6.5 17.5 6.5C18.2797 6.5 18.9204 7.09489 18.9931 7.85554L19 8V9H37V8C37 7.17157 37.6716 6.5 38.5 6.5ZM45 22H11L11.0008 39.0593C11.0148 41.6169 11.2061 42.543 11.714 43.4926C12.1316 44.2735 12.7265 44.8684 13.5074 45.286C14.495 45.8142 15.4572 46 18.2555 46H37.7445C40.5428 46 41.505 45.8142 42.4926 45.286C43.2735 44.8684 43.8684 44.2735 44.286 43.4926C44.8142 42.505 45 41.5428 45 38.7445V22ZM18.7181 37C19.1638 37 19.3255 37.0464 19.4884 37.1336C19.6514 37.2207 19.7793 37.3486 19.8664 37.5116C19.9536 37.6745 20 37.8362 20 38.2819V39.7181C20 40.1638 19.9536 40.3255 19.8664 40.4884C19.7793 40.6514 19.6514 40.7793 19.4884 40.8664C19.3255 40.9536 19.1638 41 18.7181 41H17.2819C16.8362 41 16.6745 40.9536 16.5116 40.8664C16.3486 40.7793 16.2207 40.6514 16.1336 40.4884C16.0464 40.3255 16 40.1638 16 39.7181V38.2819C16 37.8362 16.0464 37.6745 16.1336 37.5116C16.2207 37.3486 16.3486 37.2207 16.5116 37.1336C16.6745 37.0464 16.8362 37 17.2819 37H18.7181ZM28.7181 37C29.1638 37 29.3255 37.0464 29.4884 37.1336C29.6514 37.2207 29.7793 37.3486 29.8664 37.5116C29.9536 37.6745 30 37.8362 30 38.2819V39.7181C30 40.1638 29.9536 40.3255 29.8664 40.4884C29.7793 40.6514 29.6514 40.7793 29.4884 40.8664C29.3255 40.9536 29.1638 41 28.7181 41H27.2819C26.8362 41 26.6745 40.9536 26.5116 40.8664C26.3486 40.7793 26.2207 40.6514 26.1336 40.4884C26.0464 40.3255 26 40.1638 26 39.7181V38.2819C26 37.8362 26.0464 37.6745 26.1336 37.5116C26.2207 37.3486 26.3486 37.2207 26.5116 37.1336C26.6745 37.0464 26.8362 37 27.2819 37H28.7181ZM38.7181 37C39.1638 37 39.3255 37.0464 39.4884 37.1336C39.6514 37.2207 39.7793 37.3486 39.8664 37.5116C39.9536 37.6745 40 37.8362 40 38.2819V39.7181C40 40.1638 39.9536 40.3255 39.8664 40.4884C39.7793 40.6514 39.6514 40.7793 39.4884 40.8664C39.3255 40.9536 39.1638 41 38.7181 41H37.2819C36.8362 41 36.6745 40.9536 36.5116 40.8664C36.3486 40.7793 36.2207 40.6514 36.1336 40.4884C36.0464 40.3255 36 40.1638 36 39.7181V38.2819C36 37.8362 36.0464 37.6745 36.1336 37.5116C36.2207 37.3486 36.3486 37.2207 36.5116 37.1336C36.6745 37.0464 36.8362 37 37.2819 37H38.7181ZM18.7181 27C19.1638 27 19.3255 27.0464 19.4884 27.1336C19.6514 27.2207 19.7793 27.3486 19.8664 27.5116C19.9536 27.6745 20 27.8362 20 28.2819V29.7181C20 30.1638 19.9536 30.3255 19.8664 30.4884C19.7793 30.6514 19.6514 30.7793 19.4884 30.8664C19.3255 30.9536 19.1638 31 18.7181 31H17.2819C16.8362 31 16.6745 30.9536 16.5116 30.8664C16.3486 30.7793 16.2207 30.6514 16.1336 30.4884C16.0464 30.3255 16 30.1638 16 29.7181V28.2819C16 27.8362 16.0464 27.6745 16.1336 27.5116C16.2207 27.3486 16.3486 27.2207 16.5116 27.1336C16.6745 27.0464 16.8362 27 17.2819 27H18.7181ZM28.7181 27C29.1638 27 29.3255 27.0464 29.4884 27.1336C29.6514 27.2207 29.7793 27.3486 29.8664 27.5116C29.9536 27.6745 30 27.8362 30 28.2819V29.7181C30 30.1638 29.9536 30.3255 29.8664 30.4884C29.7793 30.6514 29.6514 30.7793 29.4884 30.8664C29.3255 30.9536 29.1638 31 28.7181 31H27.2819C26.8362 31 26.6745 30.9536 26.5116 30.8664C26.3486 30.7793 26.2207 30.6514 26.1336 30.4884C26.0464 30.3255 26 30.1638 26 29.7181V28.2819C26 27.8362 26.0464 27.6745 26.1336 27.5116C26.2207 27.3486 26.3486 27.2207 26.5116 27.1336C26.6745 27.0464 26.8362 27 27.2819 27H28.7181ZM38.7181 27C39.1638 27 39.3255 27.0464 39.4884 27.1336C39.6514 27.2207 39.7793 27.3486 39.8664 27.5116C39.9536 27.6745 40 27.8362 40 28.2819V29.7181C40 30.1638 39.9536 30.3255 39.8664 30.4884C39.7793 30.6514 39.6514 30.7793 39.4884 30.8664C39.3255 30.9536 39.1638 31 38.7181 31H37.2819C36.8362 31 36.6745 30.9536 36.5116 30.8664C36.3486 30.7793 36.2207 30.6514 36.1336 30.4884C36.0464 30.3255 36 30.1638 36 29.7181V28.2819C36 27.8362 36.0464 27.6745 36.1336 27.5116C36.2207 27.3486 36.3486 27.2207 36.5116 27.1336C36.6745 27.0464 36.8362 27 37.2819 27H38.7181ZM37 12H19V12.5C19 13.3284 18.3284 14 17.5 14C16.7203 14 16.0796 13.4051 16.0069 12.6445L16 12.5L15.9993 12.0678C14.8125 12.162 14.1656 12.362 13.5074 12.714C12.7265 13.1316 12.1316 13.7265 11.714 14.5074C11.2061 15.457 11.0148 16.3831 11.0008 18.9407L11 19H44.999L44.9992 18.9407C44.9852 16.3831 44.7939 15.457 44.286 14.5074C43.8684 13.7265 43.2735 13.1316 42.4926 12.714C41.8346 12.3621 41.1878 12.1621 40.0017 12.0679L40 12.5C40 13.3284 39.3284 14 38.5 14C37.7203 14 37.0796 13.4051 37.0069 12.6445L37 12.5V12Z" fill="#9BA3AE"/>
</symbol><symbol id="icon-menu" viewBox="0 0 24 24">
<rect x="3" y="5" width="18" height="2" rx="1" fill="#4680C2"/>
<rect x="3" y="11" width="18" height="2" rx="1" fill="#4680C2"/>
<rect x="3" y="17" width="18" height="2" rx="1" fill="#4680C2"/>
</symbol><symbol id="icon-more" viewBox="0 0 22 29">
  <path d="M21.55 6.077a.672.672 0 00-.196-.469L16.203.457h-.001a.67.67 0 00-.475-.197H1.417C.635.26 0 .895 0 1.676v25.908C0 28.364.635 29 1.417 29h18.717c.781 0 1.417-.635 1.417-1.416v-21.5l-.002-.007zm-5.15-3.52l2.853 2.854h-2.782a.071.071 0 01-.071-.071V2.557zm3.805 25.027a.07.07 0 01-.07.07H1.416a.07.07 0 01-.071-.07V1.676a.07.07 0 01.07-.07h13.638V5.34c0 .781.635 1.417 1.417 1.417h3.734v20.827z"/>
  <path d="M16.73 9.466H4.82a.673.673 0 000 1.346h11.91a.673.673 0 000-1.346zm0 4.061H4.82a.673.673 0 000 1.346h11.91a.673.673 0 000-1.346zm0 4.061H4.82a.673.673 0 000 1.346h11.91a.673.673 0 100-1.346zm-5.955 4.061H4.82a.673.673 0 000 1.346h5.955a.673.673 0 000-1.346z"/>
</symbol><symbol id="icon-play" viewBox="0 0 18 23">
<path d="M17.2291 10.2262C18.173 10.8131 18.173 12.1869 17.2291 12.7739L2.43098 21.9748C1.43178 22.596 0.138944 21.8775 0.138944 20.7009L0.138944 2.29913C0.138944 1.12255 1.43178 0.404024 2.43097 1.02528L17.2291 10.2262Z" fill="#202239"/>
<path d="M17.2291 10.2262C18.173 10.8131 18.173 12.1869 17.2291 12.7739L2.43098 21.9748C1.43178 22.596 0.138944 21.8775 0.138944 20.7009L0.138944 2.29913C0.138944 1.12255 1.43178 0.404024 2.43097 1.02528L17.2291 10.2262Z" fill="url(#paint0_linear)" fill-opacity="0.2"/>
<path d="M17.2291 10.2262C18.173 10.8131 18.173 12.1869 17.2291 12.7739L2.43098 21.9748C1.43178 22.596 0.138944 21.8775 0.138944 20.7009L0.138944 2.29913C0.138944 1.12255 1.43178 0.404024 2.43097 1.02528L17.2291 10.2262Z" fill="white"/>

</symbol><symbol id="icon-question" viewBox="0 0 31 29">
  <path d="M19.923 5.953c-5.86 0-10.626 4.767-10.626 10.626 0 5.86 4.767 10.627 10.626 10.627.55 0 1.109-.044 1.659-.131l6.464 1.593a.548.548 0 00.68-.533v-5.606a10.558 10.558 0 001.824-5.95c0-5.86-4.767-10.626-10.627-10.626zm7.8 16.097a.544.544 0 00-.094.377v5.008L21.809 26a.541.541 0 00-.287-.028c-.53.09-1.068.136-1.598.136-5.255 0-9.53-4.275-9.53-9.529s4.275-9.529 9.53-9.529c5.253 0 9.528 4.275 9.528 9.529a9.46 9.46 0 01-1.728 5.47z" fill="" stroke="" stroke-width=".4"/>
  <path d="M3.682 27.82a.548.548 0 00.74.444l6.286-2.408c.487.115.986.202 1.486.258a.544.544 0 00.606-.483.548.548 0 00-.483-.607 11.448 11.448 0 01-1.52-.276.553.553 0 00-.388.047l-5.726 2.194-.903-7.25a.55.55 0 00-.077-.284 11.644 11.644 0 01-.845-1.742C.591 11.794 3.561 5.134 9.48 2.866a11.457 11.457 0 0111.809 2.192.548.548 0 10.734-.816A12.547 12.547 0 009.087 1.841C2.604 4.326-.65 11.622 1.834 18.107c.236.612.525 1.216.86 1.796l.988 7.917z" fill="" stroke="" stroke-width=".4"/>
  <path d="M14.677 17.506a1.427 1.427 0 100-2.854 1.427 1.427 0 000 2.854zm5.145 0a1.427 1.427 0 100-2.854 1.427 1.427 0 000 2.854zm5.146 0a1.427 1.427 0 100-2.854 1.427 1.427 0 000 2.854z" fill="" stroke="" stroke-width=".4"/>
</symbol></svg>